<svg width="12.000000" height="16.015625" viewBox="0 0 12 16.0156" fill="none" xmlns="http://www.w3.org/2000/svg" xmlns:xlink="http://www.w3.org/1999/xlink">
	<desc>
			Created with Pixso.
	</desc>
	<defs/>
	<path id="Vector" d="M6.62 15.68C6.34 16.12 5.68 16.12 5.4 15.68C0.84 9.12 0 8.43 0 6C0 2.68 2.68 0 6 0C9.34 0 12 2.68 12 6C12 8.43 11.18 9.12 6.62 15.68ZM6 8.5C7.4 8.5 8.5 7.4 8.5 6C8.5 4.62 7.4 3.5 6 3.5C4.62 3.5 3.5 4.62 3.5 6C3.5 7.4 4.62 8.5 6 8.5Z" fill="#5C8EE6" fill-opacity="1.000000" fill-rule="evenodd"/>
</svg>
