<svg width="0" height="0" class="hidden">
  <symbol fill="none" xmlns="http://www.w3.org/2000/svg" xmlns:xlink="http://www.w3.org/1999/xlink" viewBox="0 0 36 36" id="certificate">
    <desc>Created with Pixso.</desc>
    <defs></defs>
    <rect id="Frame 34" rx="-0.500000" width="35.000000" height="35.000000" transform="translate(0.500000 0.500000)" fill="#FFFFFF" fill-opacity="0"></rect>
    <path id="Vector" d="M27.22 9.35L22.68 4.82C22.19 4.32 21.47 4 20.82 4L9.66 4C8.19 4.05 7.04 5.2 7.04 6.67L7.04 13.07C6.71 13.07 6.38 13.02 5.67 12.8C5.62 12.8 5.51 12.8 5.4 12.8C5.12 12.8 4.85 12.91 4.69 13.07C3.7 14.11 3.76 14.06 2.39 14.44C2.01 14.55 1.73 14.82 1.62 15.21C1.29 16.57 1.29 16.52 0.31 17.5C0.04 17.78 -0.07 18.21 0.04 18.6C0.42 19.91 0.42 19.91 0.04 21.22C-0.07 21.6 0.04 22.04 0.31 22.32C1.29 23.3 1.29 23.3 1.62 24.61C1.73 25 2.01 25.27 2.39 25.38C2.5 25.43 2.55 25.43 2.66 25.43L2.66 31.12C2.66 31.45 2.77 31.72 3.04 31.89C3.32 32.05 3.65 32.05 3.92 31.94L7.04 30.35L10.1 31.94C10.26 32 10.37 32 10.54 32L25.41 32C26.83 32 28.04 30.85 28.04 29.42L28.04 11.21C28.04 10.56 27.71 9.85 27.22 9.35ZM21.04 5.8C21.15 5.85 21.31 5.91 21.42 6.02L26.01 10.61C26.12 10.72 26.18 10.89 26.23 11.05L21.04 11.05L21.04 5.8ZM1.84 21.33C2.12 20.13 2.12 19.69 1.84 18.49C2.66 17.61 2.88 17.23 3.21 16.03C4.41 15.7 4.74 15.48 5.62 14.6C6.16 14.77 6.54 14.82 7.04 14.82C7.47 14.82 7.86 14.77 8.4 14.6C9.22 15.48 9.61 15.7 10.81 16.03C11.14 17.23 11.3 17.56 12.18 18.49C11.85 19.69 11.85 20.13 12.18 21.33C11.36 22.21 11.14 22.59 10.81 23.79C9.99 24.01 9.5 24.17 8.73 24.83C8.19 24.61 7.64 24.5 7.04 24.5C6.38 24.5 5.83 24.61 5.29 24.89C4.52 24.23 4.03 24.01 3.21 23.79C2.88 22.59 2.72 22.26 1.84 21.33ZM7.42 28.6C7.15 28.5 6.87 28.5 6.6 28.6L4.41 29.75L4.41 26.42C4.41 26.47 4.41 26.47 4.41 26.47C4.63 26.69 4.9 26.75 5.12 26.75C5.34 26.75 5.51 26.69 5.72 26.64C6.11 26.36 6.54 26.25 7.04 26.25C7.47 26.25 7.91 26.36 8.29 26.58C8.51 26.75 8.68 26.75 8.9 26.75C9.17 26.75 9.39 26.69 9.61 26.47C9.61 26.47 9.61 26.47 9.66 26.42L9.66 29.75L7.42 28.6ZM26.29 29.42C26.29 29.86 25.85 30.3 25.41 30.3L11.41 30.3L11.41 25.43C11.47 25.43 11.52 25.43 11.63 25.38C12.01 25.27 12.29 25 12.4 24.61C12.72 23.25 12.72 23.3 13.71 22.32C13.98 22.04 14.09 21.6 13.98 21.22C13.6 19.91 13.6 19.91 13.98 18.6C14.09 18.21 13.98 17.78 13.71 17.5C12.72 16.52 12.72 16.52 12.4 15.21C12.29 14.82 12.01 14.55 11.63 14.44C10.32 14.06 10.32 14.11 9.33 13.07C9.17 12.91 8.95 12.85 8.79 12.8L8.79 6.67C8.79 6.18 9.17 5.75 9.66 5.75L19.29 5.75L19.29 11.49C19.29 12.2 19.83 12.75 20.6 12.75L26.29 12.75L26.29 29.42Z" fill="#5C8EE6" fill-opacity="1.000000" fill-rule="evenodd"></path>
  </symbol>
  <symbol fill="none" xmlns="http://www.w3.org/2000/svg" xmlns:xlink="http://www.w3.org/1999/xlink" viewBox="0 0 36 36" id="control">
    <desc>Created with Pixso.</desc>
    <defs></defs>
    <rect id="Frame 33" rx="-0.500000" width="35.000000" height="35.000000" transform="translate(0.500000 0.500000)" fill="#FFFFFF" fill-opacity="0"></rect>
    <path id="Vector" d="M17.11 23.25C15.53 23.25 14.82 24.12 12.25 24.12C9.62 24.12 8.91 23.25 7.32 23.25C3.28 23.25 0 26.58 0 30.63C0 31.39 0.6 32 1.36 32L23.07 32C23.84 32 24.5 31.39 24.5 30.63C24.5 26.58 21.16 23.25 17.11 23.25ZM1.75 30.25C1.91 27.35 4.37 25.05 7.32 25C8.42 25 9.46 25.87 12.25 25.87C15.03 25.87 16.02 25 17.11 25C20.07 25.05 22.53 27.35 22.69 30.25L1.75 30.25ZM4.81 12.75L5.46 12.75C5.3 13.35 5.25 13.89 5.25 14.5C5.25 18.38 8.36 21.5 12.25 21.5C16.07 21.5 19.25 18.38 19.25 14.5C19.19 13.89 19.14 13.35 18.97 12.75L19.68 12.75C19.9 12.75 20.12 12.58 20.12 12.31L20.12 11.43C20.12 11.21 19.9 11 19.68 11L19.25 11C19.25 8.21 17.33 5.85 14.71 5.14C14.49 4.49 13.83 4.05 13.12 4L11.37 4C10.6 4.05 9.95 4.49 9.73 5.14C7.16 5.85 5.25 8.21 5.25 11L4.81 11C4.53 11 4.37 11.21 4.37 11.43L4.37 12.31C4.37 12.58 4.53 12.75 4.81 12.75ZM14.87 7C16.4 7.71 17.44 9.25 17.5 11L14.87 11L14.87 7ZM11.37 5.75L13.12 5.75L13.12 11L11.37 11L11.37 5.75ZM7 11C7 9.25 8.03 7.71 9.62 7L9.62 11L7 11ZM7.32 12.75L17.17 12.75C17.33 13.29 17.44 13.89 17.5 14.5C17.5 17.39 15.09 19.75 12.25 19.75C9.35 19.75 7 17.39 7 14.5C7 13.89 7.1 13.29 7.32 12.75Z" fill="#5C8EE6" fill-opacity="1.000000" fill-rule="evenodd"></path>
  </symbol>
  <symbol fill="none" xmlns="http://www.w3.org/2000/svg" xmlns:xlink="http://www.w3.org/1999/xlink" viewBox="0 0 36 36" id="delivery">
    <desc>Created with Pixso.</desc>
    <defs></defs>
    <rect id="Frame 35" rx="-0.500000" width="35.000000" height="35.000000" transform="translate(0.500000 0.500000)" fill="#FFFFFF" fill-opacity="0"></rect>
    <path id="Vector" d="M1.75 21.5L20.12 21.5C21.05 21.5 21.87 20.73 21.87 19.75L21.87 7.5C21.87 6.57 21.05 5.75 20.12 5.75L1.75 5.75C0.76 5.75 0 6.57 0 7.5L0 19.75C0 20.73 0.76 21.5 1.75 21.5ZM1.75 7.5L20.12 7.5L20.12 19.75L1.75 19.75L1.75 7.5ZM33.96 15.26L30.73 12.03C30.07 11.38 29.2 11.05 28.27 11.05L24.5 11.05C24 11.05 23.62 11.43 23.62 11.92L23.62 23.3L12.46 23.3C11.81 22.75 10.99 22.42 10.06 22.42C8.8 22.42 7.71 22.97 7 23.9C6.23 22.97 5.14 22.37 3.93 22.37C1.75 22.37 0 24.17 0 26.31C0 28.5 1.75 30.25 3.93 30.25C5.14 30.25 6.23 29.7 7 28.77C7.71 29.7 8.8 30.25 10.06 30.25C12.19 30.25 14 28.5 14 26.31C14 25.87 13.89 25.43 13.72 25L24.55 25C24.39 25.76 24.44 26.53 24.71 27.35C25.15 28.71 26.35 29.81 27.78 30.14C30.62 30.85 33.25 28.66 33.25 25.87C33.25 25.6 33.19 25.32 33.14 25L34.12 25C34.56 25 35 24.61 35 24.12L35 17.72C35 16.79 34.61 15.92 33.96 15.26ZM3.93 28.5C2.67 28.5 1.75 27.57 1.75 26.31C1.75 25.1 2.67 24.12 3.93 24.12C5.14 24.12 6.12 25.1 6.12 26.31C6.12 27.57 5.14 28.5 3.93 28.5ZM10.06 28.5C8.8 28.5 7.87 27.57 7.87 26.31C7.87 25.1 8.8 24.12 10.06 24.12C11.26 24.12 12.25 25.1 12.25 26.31C12.25 27.57 11.26 28.5 10.06 28.5ZM25.37 12.75L28.27 12.75C28.76 12.75 29.2 12.96 29.53 13.29L32.48 16.25L25.37 16.25L25.37 12.75ZM28.87 28.5C27.39 28.5 26.25 27.35 26.25 25.87C26.25 24.45 27.39 23.25 28.87 23.25C30.29 23.25 31.5 24.45 31.5 25.87C31.5 27.35 30.29 28.5 28.87 28.5ZM33.25 23.25L32.32 23.25C31.55 22.21 30.29 21.5 28.87 21.5C27.39 21.5 26.19 22.21 25.37 23.25L25.37 18L33.25 18L33.25 23.25ZM5.68 18L6.56 18C6.78 18 7 17.83 7 17.56L7 9.68C7 9.46 6.78 9.25 6.56 9.25L5.68 9.25C5.41 9.25 5.25 9.46 5.25 9.68L5.25 17.56C5.25 17.83 5.41 18 5.68 18ZM10.93 18L11.81 18C12.03 18 12.25 17.83 12.25 17.56L12.25 9.68C12.25 9.46 12.03 9.25 11.81 9.25L10.93 9.25C10.66 9.25 10.5 9.46 10.5 9.68L10.5 17.56C10.5 17.83 10.66 18 10.93 18ZM16.18 18L17.06 18C17.28 18 17.5 17.83 17.5 17.56L17.5 9.68C17.5 9.46 17.28 9.25 17.06 9.25L16.18 9.25C15.91 9.25 15.75 9.46 15.75 9.68L15.75 17.56C15.75 17.83 15.91 18 16.18 18Z" fill="#5C8EE6" fill-opacity="1.000000" fill-rule="evenodd"></path>
  </symbol>
  <symbol fill="none" xmlns="http://www.w3.org/2000/svg" xmlns:xlink="http://www.w3.org/1999/xlink" viewBox="0 0 140 44" id="logo">
    <desc>Created with Pixso.</desc>
    <defs>
      <clipPath id="clip191_1668">
        <rect id="logo" rx="-0.500000" width="139.000000" height="43.000000" transform="translate(0.500000 0.500000)" fill="white" fill-opacity="0"></rect>
      </clipPath>
    </defs>
    <rect id="logo" rx="-0.500000" width="139.000000" height="43.000000" transform="translate(0.500000 0.500000)" fill="#FFFFFF" fill-opacity="0"></rect>
    <g clip-path="url(#clip191_1668)">
      <path id="Vector" d="M21.99 4.89C24.28 4.89 26.47 5.34 28.47 6.16L28.47 12.35L28.47 21.81C28.47 25.36 25.59 28.24 22.04 28.24C20.53 28.24 19.15 27.72 18.05 26.85L18.05 32.54C19.29 33 20.64 33.25 22.04 33.25C29.02 33.25 33.51 27.74 33.51 21.05L33.51 3.25C30.16 1.19 26.21 0 21.99 0C9.84 0 0 9.84 0 21.99C0 28.92 3.21 35.11 8.22 39.14L8.22 32.13C6.13 29.3 4.89 25.79 4.89 21.99C4.89 12.54 12.54 4.89 21.99 4.89Z" fill="#292D33" fill-opacity="1.000000" fill-rule="evenodd"></path>
      <path id="Vector" d="M22.06 39.1C19.76 39.1 17.58 38.65 15.58 37.83L15.58 31.64L15.58 22.18C15.58 18.63 18.45 15.75 22 15.75C23.51 15.75 24.9 16.27 26 17.14L26 11.45C24.75 10.99 23.41 10.74 22 10.74C15.02 10.74 10.54 16.25 10.54 22.94L10.54 40.74C13.89 42.8 17.83 44 22.06 44C34.2 44 44.05 34.15 44.05 22C44.05 15.07 40.84 8.88 35.82 4.85L35.82 11.86C37.92 14.69 39.16 18.2 39.16 22C39.16 31.45 31.5 39.1 22.06 39.1Z" fill="#5C8EE6" fill-opacity="1.000000" fill-rule="evenodd"></path>
      <path id="Vector" d="M71.19 22.8C71.26 22.74 71.3 22.65 71.3 22.55L71.3 22.51C71.28 22.49 71.28 22.46 71.28 22.44L67.8 9.16C67.67 8.67 67.48 8.27 67.25 7.99C67.02 7.72 66.76 7.48 66.49 7.33C66.21 7.19 65.92 7.1 65.64 7.06C65.34 7.02 65.09 7 64.86 7C64.62 7 64.37 7.02 64.09 7.06C63.8 7.1 63.52 7.19 63.25 7.33C62.97 7.48 62.7 7.72 62.46 7.99C62.23 8.27 62.04 8.67 61.91 9.16L58.44 22.44L58.44 22.51C58.42 22.53 58.42 22.53 58.42 22.55C58.42 22.65 58.46 22.74 58.52 22.8C58.58 22.87 58.69 22.91 58.8 22.91L61.04 22.91C61.15 22.91 61.23 22.87 61.3 22.8C61.36 22.74 61.42 22.65 61.45 22.55L62.42 18.52L67.29 18.52L68.27 22.55C68.29 22.65 68.35 22.74 68.42 22.8C68.48 22.87 68.57 22.91 68.67 22.91L70.92 22.91C71.02 22.91 71.13 22.87 71.19 22.8ZM101.52 22.8C101.58 22.74 101.62 22.65 101.62 22.55L101.62 22.51C101.6 22.49 101.6 22.46 101.6 22.44L98.13 9.16C98 8.67 97.81 8.27 97.57 7.99C97.34 7.72 97.09 7.48 96.81 7.33C96.54 7.19 96.24 7.1 95.96 7.06C95.67 7.02 95.41 7 95.18 7C94.95 7 94.69 7.02 94.42 7.06C94.12 7.1 93.84 7.19 93.57 7.33C93.29 7.48 93.02 7.72 92.79 7.99C92.55 8.27 92.36 8.67 92.23 9.16L88.76 22.44L88.76 22.51C88.74 22.53 88.74 22.53 88.74 22.55C88.74 22.65 88.78 22.74 88.84 22.8C88.91 22.87 89.01 22.91 89.12 22.91L91.37 22.91C91.47 22.91 91.56 22.87 91.62 22.8C91.68 22.74 91.75 22.65 91.77 22.55L92.74 18.52L97.62 18.52L98.59 22.55C98.61 22.65 98.68 22.74 98.74 22.8C98.8 22.87 98.89 22.91 98.99 22.91L101.24 22.91C101.35 22.91 101.45 22.87 101.52 22.8ZM127.94 22.57C128.02 22.51 128.07 22.4 128.07 22.25L128.07 20.83C128.07 20.7 128.05 20.6 127.98 20.51C127.92 20.43 127.79 20.39 127.64 20.39L127.6 20.39C127.41 20.41 127.2 20.41 126.94 20.43C126.67 20.45 126.39 20.47 126.1 20.49C125.8 20.51 125.5 20.51 125.19 20.54C124.87 20.56 124.57 20.56 124.3 20.56C123.85 20.56 123.43 20.49 123.07 20.35C122.68 20.22 122.37 20.01 122.09 19.69C121.82 19.37 121.6 18.97 121.46 18.46C121.31 17.95 121.22 17.34 121.22 16.59L121.22 13.48C121.22 12.74 121.31 12.1 121.46 11.59C121.6 11.08 121.82 10.68 122.09 10.36C122.37 10.07 122.68 9.86 123.07 9.71C123.43 9.58 123.85 9.52 124.3 9.52C124.57 9.52 124.87 9.52 125.19 9.54C125.5 9.56 125.8 9.56 126.1 9.58C126.39 9.6 126.67 9.6 126.94 9.62C127.2 9.64 127.41 9.67 127.6 9.69L127.64 9.69C127.79 9.69 127.92 9.64 127.98 9.56C128.05 9.47 128.07 9.37 128.07 9.24L128.07 7.82C128.07 7.67 128.02 7.55 127.94 7.48C127.86 7.42 127.75 7.38 127.6 7.33C127.52 7.31 127.37 7.29 127.18 7.25C126.97 7.21 126.71 7.16 126.41 7.12C126.12 7.1 125.78 7.06 125.42 7.04C125.06 7.02 124.66 7 124.25 7C123.62 7 122.94 7.08 122.24 7.25C121.54 7.44 120.88 7.76 120.31 8.25C119.72 8.73 119.25 9.39 118.85 10.22C118.47 11.06 118.28 12.14 118.28 13.48L118.28 16.59C118.28 17.91 118.47 18.99 118.85 19.82C119.25 20.64 119.72 21.3 120.31 21.79C120.88 22.27 121.54 22.61 122.24 22.8C122.94 22.99 123.62 23.08 124.25 23.08C124.66 23.08 125.06 23.06 125.42 23.04C125.78 23.01 126.12 22.97 126.41 22.95C126.71 22.91 126.97 22.87 127.18 22.82C127.37 22.8 127.52 22.76 127.6 22.74C127.75 22.7 127.86 22.63 127.94 22.57ZM139.91 22.65C139.98 22.59 140 22.49 140 22.34L140 20.98C140 20.87 139.95 20.77 139.87 20.68C139.78 20.6 139.68 20.56 139.57 20.56L135.25 20.56C134.64 20.56 134.19 20.43 133.96 20.18C133.7 19.92 133.58 19.43 133.58 18.73L133.58 16L139.32 16C139.42 16 139.53 15.96 139.62 15.87C139.7 15.79 139.74 15.68 139.74 15.58L139.74 14.05C139.74 13.95 139.7 13.84 139.62 13.75C139.53 13.67 139.42 13.63 139.32 13.63L133.58 13.63L133.58 11.34C133.58 10.64 133.7 10.15 133.96 9.9C134.19 9.64 134.64 9.52 135.25 9.52L139.57 9.52C139.68 9.52 139.78 9.47 139.87 9.39C139.95 9.3 140 9.2 140 9.09L140 7.74C140 7.59 139.98 7.48 139.91 7.42C139.85 7.36 139.72 7.31 139.57 7.29C139.4 7.27 139.21 7.23 139.02 7.19C138.81 7.16 138.56 7.12 138.26 7.1C137.94 7.08 137.58 7.04 137.16 7.02C136.71 7 136.18 7 135.55 7L135.55 7C134.85 7 134.21 7.06 133.62 7.16C133.03 7.27 132.5 7.48 132.07 7.8C131.63 8.12 131.27 8.56 131.01 9.14C130.76 9.71 130.63 10.43 130.63 11.34L130.63 18.73C130.63 19.65 130.76 20.37 131.01 20.94C131.27 21.51 131.63 21.93 132.07 22.25C132.5 22.57 133.03 22.8 133.62 22.91C134.21 23.01 134.85 23.08 135.55 23.08L135.55 23.08C136.18 23.08 136.71 23.08 137.16 23.06C137.58 23.04 137.94 22.99 138.26 22.97C138.56 22.95 138.81 22.91 139.02 22.87C139.21 22.85 139.4 22.8 139.57 22.78C139.72 22.76 139.85 22.72 139.91 22.65ZM81.7 22.65C81.77 22.59 81.79 22.49 81.79 22.34L81.79 20.98C81.79 20.87 81.75 20.77 81.66 20.68C81.58 20.6 81.47 20.56 81.36 20.56L77.46 20.56C76.85 20.56 76.41 20.43 76.17 20.18C75.94 19.92 75.81 19.43 75.81 18.73L75.81 7.59C75.81 7.48 75.77 7.38 75.68 7.29C75.6 7.21 75.49 7.16 75.39 7.16L73.29 7.16C73.18 7.16 73.08 7.21 72.99 7.29C72.91 7.38 72.87 7.48 72.87 7.59L72.87 18.73C72.87 19.65 72.99 20.37 73.25 20.94C73.5 21.51 73.84 21.93 74.29 22.25C74.73 22.57 75.24 22.8 75.83 22.91C76.43 23.01 77.06 23.08 77.76 23.08L77.76 23.08C78.04 23.08 78.35 23.08 78.72 23.06C79.08 23.04 79.41 23.01 79.75 22.99C80.09 22.97 80.41 22.93 80.71 22.89C80.98 22.87 81.22 22.82 81.36 22.78C81.51 22.76 81.64 22.72 81.7 22.65ZM86.62 22.78C86.7 22.7 86.75 22.59 86.75 22.49L86.75 7.57C86.75 7.46 86.7 7.36 86.62 7.27C86.53 7.21 86.43 7.16 86.32 7.16L84.22 7.16C84.12 7.16 84.01 7.21 83.93 7.27C83.84 7.36 83.8 7.46 83.8 7.57L83.8 22.49C83.8 22.59 83.84 22.7 83.93 22.78C84.01 22.87 84.12 22.91 84.22 22.91L86.32 22.91C86.43 22.91 86.53 22.87 86.62 22.78ZM115.29 22.65C115.44 22.51 115.52 22.29 115.52 22.06L115.52 7.57C115.52 7.29 115.4 7.16 115.12 7.16L113.3 7.16C113.02 7.16 112.89 7.29 112.89 7.57L112.89 18.71C112.89 18.84 112.85 18.9 112.79 18.9C112.73 18.9 112.66 18.84 112.62 18.73L107.68 7.84C107.56 7.57 107.43 7.38 107.3 7.29C107.15 7.21 106.98 7.16 106.75 7.16L104.46 7.16C104.23 7.16 104.02 7.25 103.87 7.4C103.7 7.57 103.61 7.78 103.61 8.01L103.61 22.49C103.61 22.59 103.66 22.7 103.74 22.78C103.83 22.87 103.93 22.91 104.04 22.91L105.84 22.91C105.94 22.91 106.05 22.87 106.14 22.78C106.2 22.7 106.24 22.59 106.24 22.49L106.24 11.83C106.24 11.72 106.28 11.66 106.35 11.66C106.41 11.66 106.47 11.72 106.54 11.83L111.24 22.15C111.41 22.53 111.6 22.74 111.84 22.8C112.05 22.87 112.28 22.91 112.53 22.91L114.67 22.91C114.91 22.91 115.12 22.82 115.29 22.65ZM95.41 9.54C95.46 9.6 95.5 9.69 95.52 9.81L97.04 16.11L93.31 16.11L94.84 9.81C94.86 9.69 94.9 9.6 94.95 9.54C94.99 9.5 95.07 9.47 95.18 9.47C95.29 9.47 95.37 9.5 95.41 9.54ZM65.09 9.54C65.13 9.6 65.17 9.69 65.2 9.81L66.72 16.11L62.99 16.11L64.52 9.81C64.54 9.69 64.58 9.6 64.62 9.54C64.67 9.5 64.75 9.47 64.86 9.47C64.96 9.47 65.05 9.5 65.09 9.54Z" fill="#292D33" fill-opacity="1.000000" fill-rule="evenodd"></path>
      <path id="Vector" d="M65.56 31.48C65.76 31.08 65.87 30.58 65.87 29.98L65.87 29.86C65.87 29.27 65.76 28.77 65.56 28.36C65.34 27.97 65.06 27.64 64.7 27.4C64.34 27.16 63.93 26.98 63.47 26.89C62.99 26.79 62.49 26.74 61.98 26.74C61.48 26.74 60.99 26.75 60.53 26.78C60.07 26.82 59.67 26.86 59.32 26.91C59.18 26.93 59.07 26.97 59.01 27.02C58.93 27.09 58.89 27.18 58.89 27.32L58.89 36.62C58.89 36.68 58.91 36.75 58.97 36.81C59.02 36.86 59.09 36.89 59.16 36.89L60.51 36.89C60.57 36.89 60.64 36.86 60.7 36.81C60.74 36.75 60.76 36.68 60.76 36.62L60.76 33.09C60.91 33.1 61.11 33.1 61.34 33.12C61.59 33.13 61.79 33.14 61.97 33.14C62.49 33.14 62.99 33.09 63.47 32.98C63.93 32.89 64.34 32.71 64.7 32.45C65.06 32.21 65.34 31.89 65.56 31.48ZM74.48 36.89C74.59 36.89 74.64 36.83 74.64 36.72C74.64 36.68 74.63 36.64 74.61 36.62L72.49 32.67C73.06 32.45 73.51 32.12 73.83 31.67C74.17 31.23 74.33 30.63 74.33 29.91L74.33 29.79C74.33 29.21 74.22 28.73 74.02 28.33C73.8 27.94 73.52 27.63 73.15 27.4C72.8 27.17 72.38 27 71.92 26.89C71.45 26.79 70.95 26.74 70.44 26.74C69.94 26.74 69.45 26.75 68.99 26.78C68.53 26.82 68.13 26.86 67.78 26.91C67.64 26.93 67.53 26.97 67.47 27.02C67.38 27.09 67.34 27.18 67.34 27.32L67.34 36.62C67.34 36.68 67.37 36.75 67.43 36.81C67.48 36.86 67.55 36.89 67.61 36.89L68.97 36.89C69.03 36.89 69.1 36.86 69.15 36.81C69.19 36.75 69.22 36.68 69.22 36.62L69.22 32.97C69.37 32.98 69.57 32.98 69.8 33C70.03 33.01 70.25 33.02 70.42 33.02L70.61 33.02L72.56 36.62C72.6 36.68 72.63 36.75 72.67 36.81C72.71 36.86 72.76 36.89 72.83 36.89L74.48 36.89ZM83.03 34.7C83.22 34.17 83.32 33.52 83.32 32.78L83.32 30.95C83.32 30.21 83.22 29.58 83.03 29.04C82.83 28.51 82.57 28.06 82.22 27.73C81.88 27.39 81.48 27.14 81.01 26.98C80.55 26.82 80.03 26.74 79.48 26.74C78.91 26.74 78.4 26.82 77.94 26.98C77.46 27.14 77.06 27.39 76.72 27.73C76.38 28.06 76.11 28.51 75.92 29.04C75.72 29.58 75.63 30.21 75.63 30.95L75.63 32.78C75.63 33.52 75.72 34.17 75.92 34.7C76.11 35.22 76.38 35.66 76.72 36C77.06 36.33 77.46 36.59 77.94 36.75C78.4 36.91 78.91 37 79.48 37C80.03 37 80.55 36.91 81.01 36.75C81.48 36.59 81.88 36.33 82.22 36C82.57 35.66 82.83 35.22 83.03 34.7ZM91.25 35.93C91.99 35.22 92.36 34.2 92.36 32.86L92.36 30.87C92.36 29.54 91.99 28.51 91.25 27.79C90.52 27.09 89.46 26.74 88.11 26.74C87.86 26.74 87.61 26.74 87.34 26.75C87.07 26.77 86.82 26.78 86.57 26.79C86.32 26.81 86.1 26.83 85.9 26.85C85.69 26.86 85.53 26.89 85.44 26.9C85.32 26.91 85.23 26.96 85.18 27.02C85.11 27.09 85.09 27.18 85.09 27.32L85.09 36.41C85.09 36.55 85.11 36.64 85.18 36.71C85.23 36.78 85.32 36.82 85.44 36.83C85.53 36.85 85.69 36.87 85.9 36.89C86.1 36.9 86.32 36.93 86.57 36.94C86.82 36.95 87.07 36.97 87.34 36.98C87.61 37 87.86 37 88.11 37C89.46 37 90.52 36.64 91.25 35.93ZM109.31 36.67C109.37 36.63 109.4 36.56 109.4 36.47L109.4 35.56C109.4 35.48 109.38 35.41 109.34 35.36C109.3 35.31 109.22 35.28 109.13 35.28L109.1 35.28C108.98 35.29 108.84 35.29 108.68 35.31C108.5 35.32 108.33 35.33 108.14 35.35C107.95 35.36 107.76 35.36 107.56 35.37C107.35 35.39 107.17 35.39 106.99 35.39C106.71 35.39 106.44 35.35 106.21 35.25C105.96 35.17 105.76 35.04 105.58 34.83C105.41 34.63 105.27 34.37 105.18 34.05C105.08 33.72 105.03 33.33 105.03 32.86L105.03 30.87C105.03 30.4 105.08 30 105.18 29.67C105.27 29.35 105.41 29.09 105.58 28.89C105.76 28.7 105.96 28.56 106.21 28.47C106.44 28.39 106.71 28.35 106.99 28.35C107.17 28.35 107.35 28.35 107.56 28.36C107.76 28.37 107.95 28.37 108.14 28.39C108.33 28.4 108.5 28.4 108.68 28.41C108.84 28.43 108.98 28.44 109.1 28.46L109.13 28.46C109.22 28.46 109.3 28.43 109.34 28.37C109.38 28.32 109.4 28.25 109.4 28.17L109.4 27.27C109.4 27.17 109.37 27.09 109.31 27.05C109.26 27.01 109.19 26.98 109.1 26.96C109.04 26.94 108.95 26.93 108.83 26.9C108.69 26.87 108.53 26.85 108.34 26.82C108.15 26.81 107.94 26.78 107.71 26.77C107.48 26.75 107.22 26.74 106.96 26.74C106.56 26.74 106.13 26.79 105.68 26.9C105.23 27.02 104.81 27.23 104.45 27.54C104.07 27.85 103.77 28.27 103.52 28.79C103.27 29.33 103.15 30.02 103.15 30.87L103.15 32.86C103.15 33.7 103.27 34.39 103.52 34.91C103.77 35.44 104.07 35.86 104.45 36.17C104.81 36.48 105.23 36.7 105.68 36.82C106.13 36.94 106.56 37 106.96 37C107.22 37 107.48 36.98 107.71 36.97C107.94 36.95 108.15 36.93 108.34 36.91C108.53 36.89 108.69 36.86 108.83 36.83C108.95 36.82 109.04 36.79 109.1 36.78C109.19 36.75 109.26 36.71 109.31 36.67ZM129.89 34.7C130.08 34.17 130.18 33.52 130.18 32.78L130.18 30.95C130.18 30.21 130.08 29.58 129.89 29.04C129.69 28.51 129.43 28.06 129.08 27.73C128.75 27.39 128.34 27.14 127.87 26.98C127.41 26.82 126.89 26.74 126.34 26.74C125.77 26.74 125.26 26.82 124.8 26.98C124.33 27.14 123.92 27.39 123.58 27.73C123.25 28.06 122.98 28.51 122.79 29.04C122.58 29.58 122.49 30.21 122.49 30.95L122.49 32.78C122.49 33.52 122.58 34.17 122.79 34.7C122.98 35.22 123.25 35.66 123.58 36C123.92 36.33 124.33 36.59 124.8 36.75C125.26 36.91 125.77 37 126.34 37C126.89 37 127.41 36.91 127.87 36.75C128.34 36.59 128.75 36.33 129.08 36C129.43 35.66 129.69 35.22 129.89 34.7ZM101.19 34.98C101.37 34.5 101.46 33.89 101.46 33.17L101.46 27.1C101.46 27.04 101.44 26.97 101.38 26.91C101.33 26.87 101.26 26.85 101.19 26.85L99.85 26.85C99.79 26.85 99.72 26.87 99.67 26.91C99.61 26.97 99.58 27.04 99.58 27.1L99.58 33.18C99.58 33.56 99.56 33.9 99.5 34.18C99.45 34.47 99.36 34.71 99.22 34.9C99.07 35.09 98.88 35.22 98.65 35.32C98.41 35.41 98.11 35.45 97.75 35.45C97.38 35.45 97.07 35.41 96.84 35.32C96.61 35.22 96.42 35.09 96.29 34.9C96.14 34.71 96.04 34.47 95.99 34.18C95.94 33.9 95.91 33.56 95.91 33.18L95.91 27.1C95.91 27.04 95.88 26.97 95.83 26.91C95.77 26.87 95.71 26.85 95.64 26.85L94.3 26.85C94.23 26.85 94.17 26.87 94.11 26.91C94.06 26.97 94.03 27.04 94.03 27.1L94.03 33.17C94.03 33.89 94.13 34.5 94.31 34.98C94.49 35.47 94.75 35.86 95.08 36.16C95.41 36.45 95.8 36.67 96.26 36.79C96.71 36.93 97.21 37 97.75 37C98.29 37 98.79 36.93 99.25 36.79C99.69 36.67 100.09 36.45 100.42 36.16C100.75 35.86 101 35.47 101.19 34.98ZM117.42 28.35C117.48 28.31 117.5 28.24 117.5 28.17L117.5 27.1C117.5 27.04 117.48 26.97 117.42 26.91C117.37 26.87 117.3 26.85 117.23 26.85L110.63 26.85C110.56 26.85 110.49 26.87 110.44 26.91C110.38 26.97 110.35 27.04 110.35 27.1L110.35 28.17C110.35 28.24 110.38 28.31 110.44 28.35C110.49 28.39 110.56 28.41 110.63 28.41L112.99 28.41L112.99 36.62C112.99 36.68 113.02 36.75 113.07 36.81C113.12 36.86 113.19 36.89 113.26 36.89L114.6 36.89C114.67 36.89 114.73 36.86 114.79 36.81C114.84 36.75 114.87 36.68 114.87 36.62L114.87 28.41L117.23 28.41C117.3 28.41 117.37 28.39 117.42 28.35ZM120.65 36.81C120.71 36.75 120.73 36.68 120.73 36.62L120.73 27.1C120.73 27.04 120.71 26.97 120.65 26.91C120.6 26.87 120.53 26.85 120.46 26.85L119.12 26.85C119.06 26.85 118.99 26.87 118.94 26.91C118.88 26.97 118.85 27.04 118.85 27.1L118.85 36.62C118.85 36.68 118.88 36.75 118.94 36.81C118.99 36.86 119.06 36.89 119.12 36.89L120.46 36.89C120.53 36.89 120.6 36.86 120.65 36.81ZM139.39 36.72C139.49 36.63 139.54 36.5 139.54 36.35L139.54 27.1C139.54 26.93 139.46 26.85 139.28 26.85L138.12 26.85C137.95 26.85 137.87 26.93 137.87 27.1L137.87 34.21C137.87 34.29 137.84 34.33 137.8 34.33C137.76 34.33 137.72 34.29 137.69 34.22L134.54 27.28C134.46 27.1 134.38 26.98 134.3 26.93C134.2 26.87 134.1 26.85 133.95 26.85L132.49 26.85C132.34 26.85 132.2 26.9 132.11 27C132 27.1 131.95 27.24 131.95 27.39L131.95 36.62C131.95 36.68 131.97 36.75 132.03 36.81C132.08 36.86 132.15 36.89 132.22 36.89L133.37 36.89C133.43 36.89 133.5 36.86 133.56 36.81C133.6 36.75 133.62 36.68 133.62 36.62L133.62 29.82C133.62 29.75 133.65 29.71 133.69 29.71C133.73 29.71 133.77 29.75 133.81 29.82L136.81 36.4C136.92 36.64 137.04 36.78 137.19 36.82C137.33 36.86 137.47 36.89 137.64 36.89L139 36.89C139.15 36.89 139.28 36.83 139.39 36.72ZM63.49 28.64C63.83 28.87 63.99 29.28 63.99 29.85L63.99 29.97C63.99 30.52 63.84 30.93 63.53 31.2C63.22 31.47 62.7 31.6 61.97 31.6C61.91 31.6 61.83 31.6 61.72 31.59L61.72 31.59C61.6 31.59 61.49 31.59 61.37 31.58L61.37 31.58C61.25 31.58 61.13 31.58 61.02 31.56L60.76 31.56L60.76 28.33C60.83 28.32 60.91 28.32 61.02 28.31L61.02 28.31C61.11 28.31 61.22 28.31 61.34 28.29L61.34 28.29C61.47 28.29 61.57 28.29 61.7 28.28L61.97 28.28C62.64 28.28 63.16 28.4 63.49 28.64ZM90.3 29.63C90.42 29.95 90.48 30.37 90.48 30.87L90.48 32.87C90.48 33.37 90.42 33.79 90.3 34.12C90.18 34.45 90 34.71 89.8 34.9C89.59 35.1 89.33 35.24 89.05 35.31C88.75 35.39 88.44 35.43 88.1 35.43C87.84 35.43 87.63 35.43 87.45 35.41C87.27 35.4 87.11 35.4 86.96 35.39L86.96 28.36C87.11 28.35 87.27 28.35 87.45 28.33C87.63 28.32 87.84 28.32 88.1 28.32L88.1 28.32C88.44 28.32 88.75 28.36 89.05 28.43C89.33 28.51 89.59 28.64 89.8 28.83C90 29.04 90.18 29.29 90.3 29.63ZM71.95 28.68C72.29 28.91 72.45 29.28 72.45 29.79L72.45 29.91C72.45 30.51 72.29 30.91 71.97 31.14C71.64 31.37 71.13 31.48 70.42 31.48C70.37 31.48 70.29 31.48 70.18 31.47L70.18 31.47C70.06 31.47 69.95 31.47 69.83 31.45C69.71 31.45 69.59 31.45 69.48 31.44L69.22 31.44L69.22 28.4C69.29 28.39 69.37 28.39 69.48 28.37L69.48 28.37C69.57 28.37 69.68 28.37 69.8 28.36C69.92 28.36 70.03 28.36 70.15 28.35L70.42 28.35C71.1 28.35 71.61 28.46 71.95 28.68ZM80.95 28.98C81.28 29.4 81.44 30.05 81.44 30.95L81.44 32.78C81.44 33.68 81.28 34.33 80.95 34.74C80.64 35.16 80.14 35.36 79.48 35.36C78.8 35.36 78.3 35.16 77.99 34.74C77.67 34.33 77.51 33.68 77.51 32.78L77.51 30.95C77.51 30.05 77.67 29.4 77.99 28.98C78.3 28.58 78.8 28.37 79.48 28.37C80.14 28.37 80.64 28.58 80.95 28.98ZM127.81 28.98C128.14 29.4 128.3 30.05 128.3 30.95L128.3 32.78C128.3 33.68 128.14 34.33 127.81 34.74C127.5 35.16 127 35.36 126.34 35.36C125.66 35.36 125.16 35.16 124.85 34.74C124.53 34.33 124.37 33.68 124.37 32.78L124.37 30.95C124.37 30.05 124.53 29.4 124.85 28.98C125.16 28.58 125.66 28.37 126.34 28.37C127 28.37 127.5 28.58 127.81 28.98Z" fill="#5C8EE6" fill-opacity="1.000000" fill-rule="evenodd"></path>
    </g>
  </symbol>
  <symbol fill="none" xmlns="http://www.w3.org/2000/svg" xmlns:xlink="http://www.w3.org/1999/xlink" viewBox="0 0 140 44" id="logo-light">
    <desc>Created with Pixso.</desc>
    <defs>
      <clipPath id="clip191_1609">
        <rect id="logo" rx="-0.500000" width="139.000000" height="43.000000" transform="translate(0.500000 0.500000)" fill="white" fill-opacity="0"></rect>
      </clipPath>
    </defs>
    <rect id="logo" rx="-0.500000" width="139.000000" height="43.000000" transform="translate(0.500000 0.500000)" fill="#FFFFFF" fill-opacity="0"></rect>
    <g clip-path="url(#clip191_1609)">
      <path id="Vector" d="M21.99 4.89C24.28 4.89 26.47 5.34 28.47 6.16L28.47 12.35L28.47 21.81C28.47 25.36 25.59 28.24 22.04 28.24C20.53 28.24 19.15 27.72 18.05 26.85L18.05 32.54C19.29 33 20.64 33.25 22.04 33.25C29.02 33.25 33.51 27.74 33.51 21.05L33.51 3.25C30.16 1.19 26.21 0 21.99 0C9.84 0 0 9.84 0 21.99C0 28.92 3.21 35.11 8.22 39.14L8.22 32.13C6.13 29.3 4.89 25.79 4.89 21.99C4.89 12.54 12.54 4.89 21.99 4.89Z" fill="#FFFFFF" fill-opacity="1.000000" fill-rule="evenodd"></path>
      <path id="Vector" d="M22.06 39.1C19.76 39.1 17.58 38.65 15.58 37.83L15.58 31.64L15.58 22.18C15.58 18.63 18.45 15.75 22 15.75C23.51 15.75 24.9 16.27 26 17.14L26 11.45C24.75 10.99 23.41 10.74 22 10.74C15.02 10.74 10.54 16.25 10.54 22.94L10.54 40.74C13.89 42.8 17.83 44 22.06 44C34.2 44 44.05 34.15 44.05 22C44.05 15.07 40.84 8.88 35.82 4.85L35.82 11.86C37.92 14.69 39.16 18.2 39.16 22C39.16 31.45 31.5 39.1 22.06 39.1Z" fill="#5C8EE6" fill-opacity="1.000000" fill-rule="evenodd"></path>
      <path id="Vector" d="M71.19 22.8C71.26 22.74 71.3 22.65 71.3 22.55L71.3 22.51C71.28 22.49 71.28 22.46 71.28 22.44L67.8 9.16C67.67 8.67 67.48 8.27 67.25 7.99C67.02 7.72 66.76 7.48 66.49 7.33C66.21 7.19 65.92 7.1 65.64 7.06C65.34 7.02 65.09 7 64.86 7C64.62 7 64.37 7.02 64.09 7.06C63.8 7.1 63.52 7.19 63.25 7.33C62.97 7.48 62.7 7.72 62.46 7.99C62.23 8.27 62.04 8.67 61.91 9.16L58.44 22.44L58.44 22.51C58.42 22.53 58.42 22.53 58.42 22.55C58.42 22.65 58.46 22.74 58.52 22.8C58.58 22.87 58.69 22.91 58.8 22.91L61.04 22.91C61.15 22.91 61.23 22.87 61.3 22.8C61.36 22.74 61.42 22.65 61.45 22.55L62.42 18.52L67.29 18.52L68.27 22.55C68.29 22.65 68.35 22.74 68.42 22.8C68.48 22.87 68.57 22.91 68.67 22.91L70.92 22.91C71.02 22.91 71.13 22.87 71.19 22.8ZM101.52 22.8C101.58 22.74 101.62 22.65 101.62 22.55L101.62 22.51C101.6 22.49 101.6 22.46 101.6 22.44L98.13 9.16C98 8.67 97.81 8.27 97.57 7.99C97.34 7.72 97.09 7.48 96.81 7.33C96.54 7.19 96.24 7.1 95.96 7.06C95.67 7.02 95.41 7 95.18 7C94.95 7 94.69 7.02 94.42 7.06C94.12 7.1 93.84 7.19 93.57 7.33C93.29 7.48 93.02 7.72 92.79 7.99C92.55 8.27 92.36 8.67 92.23 9.16L88.76 22.44L88.76 22.51C88.74 22.53 88.74 22.53 88.74 22.55C88.74 22.65 88.78 22.74 88.84 22.8C88.91 22.87 89.01 22.91 89.12 22.91L91.37 22.91C91.47 22.91 91.56 22.87 91.62 22.8C91.68 22.74 91.75 22.65 91.77 22.55L92.74 18.52L97.62 18.52L98.59 22.55C98.61 22.65 98.68 22.74 98.74 22.8C98.8 22.87 98.89 22.91 98.99 22.91L101.24 22.91C101.35 22.91 101.45 22.87 101.52 22.8ZM127.94 22.57C128.02 22.51 128.07 22.4 128.07 22.25L128.07 20.83C128.07 20.7 128.05 20.6 127.98 20.51C127.92 20.43 127.79 20.39 127.64 20.39L127.6 20.39C127.41 20.41 127.2 20.41 126.94 20.43C126.67 20.45 126.39 20.47 126.1 20.49C125.8 20.51 125.5 20.51 125.19 20.54C124.87 20.56 124.57 20.56 124.3 20.56C123.85 20.56 123.43 20.49 123.07 20.35C122.68 20.22 122.37 20.01 122.09 19.69C121.82 19.37 121.6 18.97 121.46 18.46C121.31 17.95 121.22 17.34 121.22 16.59L121.22 13.48C121.22 12.74 121.31 12.1 121.46 11.59C121.6 11.08 121.82 10.68 122.09 10.36C122.37 10.07 122.68 9.86 123.07 9.71C123.43 9.58 123.85 9.52 124.3 9.52C124.57 9.52 124.87 9.52 125.19 9.54C125.5 9.56 125.8 9.56 126.1 9.58C126.39 9.6 126.67 9.6 126.94 9.62C127.2 9.64 127.41 9.67 127.6 9.69L127.64 9.69C127.79 9.69 127.92 9.64 127.98 9.56C128.05 9.47 128.07 9.37 128.07 9.24L128.07 7.82C128.07 7.67 128.02 7.55 127.94 7.48C127.86 7.42 127.75 7.38 127.6 7.33C127.52 7.31 127.37 7.29 127.18 7.25C126.97 7.21 126.71 7.16 126.41 7.12C126.12 7.1 125.78 7.06 125.42 7.04C125.06 7.02 124.66 7 124.25 7C123.62 7 122.94 7.08 122.24 7.25C121.54 7.44 120.88 7.76 120.31 8.25C119.72 8.73 119.25 9.39 118.85 10.22C118.47 11.06 118.28 12.14 118.28 13.48L118.28 16.59C118.28 17.91 118.47 18.99 118.85 19.82C119.25 20.64 119.72 21.3 120.31 21.79C120.88 22.27 121.54 22.61 122.24 22.8C122.94 22.99 123.62 23.08 124.25 23.08C124.66 23.08 125.06 23.06 125.42 23.04C125.78 23.01 126.12 22.97 126.41 22.95C126.71 22.91 126.97 22.87 127.18 22.82C127.37 22.8 127.52 22.76 127.6 22.74C127.75 22.7 127.86 22.63 127.94 22.57ZM139.91 22.65C139.98 22.59 140 22.49 140 22.34L140 20.98C140 20.87 139.95 20.77 139.87 20.68C139.78 20.6 139.68 20.56 139.57 20.56L135.25 20.56C134.64 20.56 134.19 20.43 133.96 20.18C133.7 19.92 133.58 19.43 133.58 18.73L133.58 16L139.32 16C139.42 16 139.53 15.96 139.62 15.87C139.7 15.79 139.74 15.68 139.74 15.58L139.74 14.05C139.74 13.95 139.7 13.84 139.62 13.75C139.53 13.67 139.42 13.63 139.32 13.63L133.58 13.63L133.58 11.34C133.58 10.64 133.7 10.15 133.96 9.9C134.19 9.64 134.64 9.52 135.25 9.52L139.57 9.52C139.68 9.52 139.78 9.47 139.87 9.39C139.95 9.3 140 9.2 140 9.09L140 7.74C140 7.59 139.98 7.48 139.91 7.42C139.85 7.36 139.72 7.31 139.57 7.29C139.4 7.27 139.21 7.23 139.02 7.19C138.81 7.16 138.56 7.12 138.26 7.1C137.94 7.08 137.58 7.04 137.16 7.02C136.71 7 136.18 7 135.55 7L135.55 7C134.85 7 134.21 7.06 133.62 7.16C133.03 7.27 132.5 7.48 132.07 7.8C131.63 8.12 131.27 8.56 131.01 9.14C130.76 9.71 130.63 10.43 130.63 11.34L130.63 18.73C130.63 19.65 130.76 20.37 131.01 20.94C131.27 21.51 131.63 21.93 132.07 22.25C132.5 22.57 133.03 22.8 133.62 22.91C134.21 23.01 134.85 23.08 135.55 23.08L135.55 23.08C136.18 23.08 136.71 23.08 137.16 23.06C137.58 23.04 137.94 22.99 138.26 22.97C138.56 22.95 138.81 22.91 139.02 22.87C139.21 22.85 139.4 22.8 139.57 22.78C139.72 22.76 139.85 22.72 139.91 22.65ZM81.7 22.65C81.77 22.59 81.79 22.49 81.79 22.34L81.79 20.98C81.79 20.87 81.75 20.77 81.66 20.68C81.58 20.6 81.47 20.56 81.36 20.56L77.46 20.56C76.85 20.56 76.41 20.43 76.17 20.18C75.94 19.92 75.81 19.43 75.81 18.73L75.81 7.59C75.81 7.48 75.77 7.38 75.68 7.29C75.6 7.21 75.49 7.16 75.39 7.16L73.29 7.16C73.18 7.16 73.08 7.21 72.99 7.29C72.91 7.38 72.87 7.48 72.87 7.59L72.87 18.73C72.87 19.65 72.99 20.37 73.25 20.94C73.5 21.51 73.84 21.93 74.29 22.25C74.73 22.57 75.24 22.8 75.83 22.91C76.43 23.01 77.06 23.08 77.76 23.08L77.76 23.08C78.04 23.08 78.35 23.08 78.72 23.06C79.08 23.04 79.41 23.01 79.75 22.99C80.09 22.97 80.41 22.93 80.71 22.89C80.98 22.87 81.22 22.82 81.36 22.78C81.51 22.76 81.64 22.72 81.7 22.65ZM86.62 22.78C86.7 22.7 86.75 22.59 86.75 22.49L86.75 7.57C86.75 7.46 86.7 7.36 86.62 7.27C86.53 7.21 86.43 7.16 86.32 7.16L84.22 7.16C84.12 7.16 84.01 7.21 83.93 7.27C83.84 7.36 83.8 7.46 83.8 7.57L83.8 22.49C83.8 22.59 83.84 22.7 83.93 22.78C84.01 22.87 84.12 22.91 84.22 22.91L86.32 22.91C86.43 22.91 86.53 22.87 86.62 22.78ZM115.29 22.65C115.44 22.51 115.52 22.29 115.52 22.06L115.52 7.57C115.52 7.29 115.4 7.16 115.12 7.16L113.3 7.16C113.02 7.16 112.89 7.29 112.89 7.57L112.89 18.71C112.89 18.84 112.85 18.9 112.79 18.9C112.73 18.9 112.66 18.84 112.62 18.73L107.68 7.84C107.56 7.57 107.43 7.38 107.3 7.29C107.15 7.21 106.98 7.16 106.75 7.16L104.46 7.16C104.23 7.16 104.02 7.25 103.87 7.4C103.7 7.57 103.61 7.78 103.61 8.01L103.61 22.49C103.61 22.59 103.66 22.7 103.74 22.78C103.83 22.87 103.93 22.91 104.04 22.91L105.84 22.91C105.94 22.91 106.05 22.87 106.14 22.78C106.2 22.7 106.24 22.59 106.24 22.49L106.24 11.83C106.24 11.72 106.28 11.66 106.35 11.66C106.41 11.66 106.47 11.72 106.54 11.83L111.24 22.15C111.41 22.53 111.6 22.74 111.84 22.8C112.05 22.87 112.28 22.91 112.53 22.91L114.67 22.91C114.91 22.91 115.12 22.82 115.29 22.65ZM95.41 9.54C95.46 9.6 95.5 9.69 95.52 9.81L97.04 16.11L93.31 16.11L94.84 9.81C94.86 9.69 94.9 9.6 94.95 9.54C94.99 9.5 95.07 9.47 95.18 9.47C95.29 9.47 95.37 9.5 95.41 9.54ZM65.09 9.54C65.13 9.6 65.17 9.69 65.2 9.81L66.72 16.11L62.99 16.11L64.52 9.81C64.54 9.69 64.58 9.6 64.62 9.54C64.67 9.5 64.75 9.47 64.86 9.47C64.96 9.47 65.05 9.5 65.09 9.54Z" fill="#FFFFFF" fill-opacity="1.000000" fill-rule="evenodd"></path>
      <path id="Vector" d="M65.56 31.48C65.76 31.08 65.87 30.58 65.87 29.98L65.87 29.86C65.87 29.27 65.76 28.77 65.56 28.36C65.34 27.97 65.06 27.64 64.7 27.4C64.34 27.16 63.93 26.98 63.47 26.89C62.99 26.79 62.49 26.74 61.98 26.74C61.48 26.74 60.99 26.75 60.53 26.78C60.07 26.82 59.67 26.86 59.32 26.91C59.18 26.93 59.07 26.97 59.01 27.02C58.93 27.09 58.89 27.18 58.89 27.32L58.89 36.62C58.89 36.68 58.91 36.75 58.97 36.81C59.02 36.86 59.09 36.89 59.16 36.89L60.51 36.89C60.57 36.89 60.64 36.86 60.7 36.81C60.74 36.75 60.76 36.68 60.76 36.62L60.76 33.09C60.91 33.1 61.11 33.1 61.34 33.12C61.59 33.13 61.79 33.14 61.97 33.14C62.49 33.14 62.99 33.09 63.47 32.98C63.93 32.89 64.34 32.71 64.7 32.45C65.06 32.21 65.34 31.89 65.56 31.48ZM74.48 36.89C74.59 36.89 74.64 36.83 74.64 36.72C74.64 36.68 74.63 36.64 74.61 36.62L72.49 32.67C73.06 32.45 73.51 32.12 73.83 31.67C74.17 31.23 74.33 30.63 74.33 29.91L74.33 29.79C74.33 29.21 74.22 28.73 74.02 28.33C73.8 27.94 73.52 27.63 73.15 27.4C72.8 27.17 72.38 27 71.92 26.89C71.45 26.79 70.95 26.74 70.44 26.74C69.94 26.74 69.45 26.75 68.99 26.78C68.53 26.82 68.13 26.86 67.78 26.91C67.64 26.93 67.53 26.97 67.47 27.02C67.38 27.09 67.34 27.18 67.34 27.32L67.34 36.62C67.34 36.68 67.37 36.75 67.43 36.81C67.48 36.86 67.55 36.89 67.61 36.89L68.97 36.89C69.03 36.89 69.1 36.86 69.15 36.81C69.19 36.75 69.22 36.68 69.22 36.62L69.22 32.97C69.37 32.98 69.57 32.98 69.8 33C70.03 33.01 70.25 33.02 70.42 33.02L70.61 33.02L72.56 36.62C72.6 36.68 72.63 36.75 72.67 36.81C72.71 36.86 72.76 36.89 72.83 36.89L74.48 36.89ZM83.03 34.7C83.22 34.17 83.32 33.52 83.32 32.78L83.32 30.95C83.32 30.21 83.22 29.58 83.03 29.04C82.83 28.51 82.57 28.06 82.22 27.73C81.88 27.39 81.48 27.14 81.01 26.98C80.55 26.82 80.03 26.74 79.48 26.74C78.91 26.74 78.4 26.82 77.94 26.98C77.46 27.14 77.06 27.39 76.72 27.73C76.38 28.06 76.11 28.51 75.92 29.04C75.72 29.58 75.63 30.21 75.63 30.95L75.63 32.78C75.63 33.52 75.72 34.17 75.92 34.7C76.11 35.22 76.38 35.66 76.72 36C77.06 36.33 77.46 36.59 77.94 36.75C78.4 36.91 78.91 37 79.48 37C80.03 37 80.55 36.91 81.01 36.75C81.48 36.59 81.88 36.33 82.22 36C82.57 35.66 82.83 35.22 83.03 34.7ZM91.25 35.93C91.99 35.22 92.36 34.2 92.36 32.86L92.36 30.87C92.36 29.54 91.99 28.51 91.25 27.79C90.52 27.09 89.46 26.74 88.11 26.74C87.86 26.74 87.61 26.74 87.34 26.75C87.07 26.77 86.82 26.78 86.57 26.79C86.32 26.81 86.1 26.83 85.9 26.85C85.69 26.86 85.53 26.89 85.44 26.9C85.32 26.91 85.23 26.96 85.18 27.02C85.11 27.09 85.09 27.18 85.09 27.32L85.09 36.41C85.09 36.55 85.11 36.64 85.18 36.71C85.23 36.78 85.32 36.82 85.44 36.83C85.53 36.85 85.69 36.87 85.9 36.89C86.1 36.9 86.32 36.93 86.57 36.94C86.82 36.95 87.07 36.97 87.34 36.98C87.61 37 87.86 37 88.11 37C89.46 37 90.52 36.64 91.25 35.93ZM109.31 36.67C109.37 36.63 109.4 36.56 109.4 36.47L109.4 35.56C109.4 35.48 109.38 35.41 109.34 35.36C109.3 35.31 109.22 35.28 109.13 35.28L109.1 35.28C108.98 35.29 108.84 35.29 108.68 35.31C108.5 35.32 108.33 35.33 108.14 35.35C107.95 35.36 107.76 35.36 107.56 35.37C107.35 35.39 107.17 35.39 106.99 35.39C106.71 35.39 106.44 35.35 106.21 35.25C105.96 35.17 105.76 35.04 105.58 34.83C105.41 34.63 105.27 34.37 105.18 34.05C105.08 33.72 105.03 33.33 105.03 32.86L105.03 30.87C105.03 30.4 105.08 30 105.18 29.67C105.27 29.35 105.41 29.09 105.58 28.89C105.76 28.7 105.96 28.56 106.21 28.47C106.44 28.39 106.71 28.35 106.99 28.35C107.17 28.35 107.35 28.35 107.56 28.36C107.76 28.37 107.95 28.37 108.14 28.39C108.33 28.4 108.5 28.4 108.68 28.41C108.84 28.43 108.98 28.44 109.1 28.46L109.13 28.46C109.22 28.46 109.3 28.43 109.34 28.37C109.38 28.32 109.4 28.25 109.4 28.17L109.4 27.27C109.4 27.17 109.37 27.09 109.31 27.05C109.26 27.01 109.19 26.98 109.1 26.96C109.04 26.94 108.95 26.93 108.83 26.9C108.69 26.87 108.53 26.85 108.34 26.82C108.15 26.81 107.94 26.78 107.71 26.77C107.48 26.75 107.22 26.74 106.96 26.74C106.56 26.74 106.13 26.79 105.68 26.9C105.23 27.02 104.81 27.23 104.45 27.54C104.07 27.85 103.77 28.27 103.52 28.79C103.27 29.33 103.15 30.02 103.15 30.87L103.15 32.86C103.15 33.7 103.27 34.39 103.52 34.91C103.77 35.44 104.07 35.86 104.45 36.17C104.81 36.48 105.23 36.7 105.68 36.82C106.13 36.94 106.56 37 106.96 37C107.22 37 107.48 36.98 107.71 36.97C107.94 36.95 108.15 36.93 108.34 36.91C108.53 36.89 108.69 36.86 108.83 36.83C108.95 36.82 109.04 36.79 109.1 36.78C109.19 36.75 109.26 36.71 109.31 36.67ZM129.89 34.7C130.08 34.17 130.18 33.52 130.18 32.78L130.18 30.95C130.18 30.21 130.08 29.58 129.89 29.04C129.69 28.51 129.43 28.06 129.08 27.73C128.75 27.39 128.34 27.14 127.87 26.98C127.41 26.82 126.89 26.74 126.34 26.74C125.77 26.74 125.26 26.82 124.8 26.98C124.33 27.14 123.92 27.39 123.58 27.73C123.25 28.06 122.98 28.51 122.79 29.04C122.58 29.58 122.49 30.21 122.49 30.95L122.49 32.78C122.49 33.52 122.58 34.17 122.79 34.7C122.98 35.22 123.25 35.66 123.58 36C123.92 36.33 124.33 36.59 124.8 36.75C125.26 36.91 125.77 37 126.34 37C126.89 37 127.41 36.91 127.87 36.75C128.34 36.59 128.75 36.33 129.08 36C129.43 35.66 129.69 35.22 129.89 34.7ZM101.19 34.98C101.37 34.5 101.46 33.89 101.46 33.17L101.46 27.1C101.46 27.04 101.44 26.97 101.38 26.91C101.33 26.87 101.26 26.85 101.19 26.85L99.85 26.85C99.79 26.85 99.72 26.87 99.67 26.91C99.61 26.97 99.58 27.04 99.58 27.1L99.58 33.18C99.58 33.56 99.56 33.9 99.5 34.18C99.45 34.47 99.36 34.71 99.22 34.9C99.07 35.09 98.88 35.22 98.65 35.32C98.41 35.41 98.11 35.45 97.75 35.45C97.38 35.45 97.07 35.41 96.84 35.32C96.61 35.22 96.42 35.09 96.29 34.9C96.14 34.71 96.04 34.47 95.99 34.18C95.94 33.9 95.91 33.56 95.91 33.18L95.91 27.1C95.91 27.04 95.88 26.97 95.83 26.91C95.77 26.87 95.71 26.85 95.64 26.85L94.3 26.85C94.23 26.85 94.17 26.87 94.11 26.91C94.06 26.97 94.03 27.04 94.03 27.1L94.03 33.17C94.03 33.89 94.13 34.5 94.31 34.98C94.49 35.47 94.75 35.86 95.08 36.16C95.41 36.45 95.8 36.67 96.26 36.79C96.71 36.93 97.21 37 97.75 37C98.29 37 98.79 36.93 99.25 36.79C99.69 36.67 100.09 36.45 100.42 36.16C100.75 35.86 101 35.47 101.19 34.98ZM117.42 28.35C117.48 28.31 117.5 28.24 117.5 28.17L117.5 27.1C117.5 27.04 117.48 26.97 117.42 26.91C117.37 26.87 117.3 26.85 117.23 26.85L110.63 26.85C110.56 26.85 110.49 26.87 110.44 26.91C110.38 26.97 110.35 27.04 110.35 27.1L110.35 28.17C110.35 28.24 110.38 28.31 110.44 28.35C110.49 28.39 110.56 28.41 110.63 28.41L112.99 28.41L112.99 36.62C112.99 36.68 113.02 36.75 113.07 36.81C113.12 36.86 113.19 36.89 113.26 36.89L114.6 36.89C114.67 36.89 114.73 36.86 114.79 36.81C114.84 36.75 114.87 36.68 114.87 36.62L114.87 28.41L117.23 28.41C117.3 28.41 117.37 28.39 117.42 28.35ZM120.65 36.81C120.71 36.75 120.73 36.68 120.73 36.62L120.73 27.1C120.73 27.04 120.71 26.97 120.65 26.91C120.6 26.87 120.53 26.85 120.46 26.85L119.12 26.85C119.06 26.85 118.99 26.87 118.94 26.91C118.88 26.97 118.85 27.04 118.85 27.1L118.85 36.62C118.85 36.68 118.88 36.75 118.94 36.81C118.99 36.86 119.06 36.89 119.12 36.89L120.46 36.89C120.53 36.89 120.6 36.86 120.65 36.81ZM139.39 36.72C139.49 36.63 139.54 36.5 139.54 36.35L139.54 27.1C139.54 26.93 139.46 26.85 139.28 26.85L138.12 26.85C137.95 26.85 137.87 26.93 137.87 27.1L137.87 34.21C137.87 34.29 137.84 34.33 137.8 34.33C137.76 34.33 137.72 34.29 137.69 34.22L134.54 27.28C134.46 27.1 134.38 26.98 134.3 26.93C134.2 26.87 134.1 26.85 133.95 26.85L132.49 26.85C132.34 26.85 132.2 26.9 132.11 27C132 27.1 131.95 27.24 131.95 27.39L131.95 36.62C131.95 36.68 131.97 36.75 132.03 36.81C132.08 36.86 132.15 36.89 132.22 36.89L133.37 36.89C133.43 36.89 133.5 36.86 133.56 36.81C133.6 36.75 133.62 36.68 133.62 36.62L133.62 29.82C133.62 29.75 133.65 29.71 133.69 29.71C133.73 29.71 133.77 29.75 133.81 29.82L136.81 36.4C136.92 36.64 137.04 36.78 137.19 36.82C137.33 36.86 137.47 36.89 137.64 36.89L139 36.89C139.15 36.89 139.28 36.83 139.39 36.72ZM63.49 28.64C63.83 28.87 63.99 29.28 63.99 29.85L63.99 29.97C63.99 30.52 63.84 30.93 63.53 31.2C63.22 31.47 62.7 31.6 61.97 31.6C61.91 31.6 61.83 31.6 61.72 31.59L61.72 31.59C61.6 31.59 61.49 31.59 61.37 31.58L61.37 31.58C61.25 31.58 61.13 31.58 61.02 31.56L60.76 31.56L60.76 28.33C60.83 28.32 60.91 28.32 61.02 28.31L61.02 28.31C61.11 28.31 61.22 28.31 61.34 28.29L61.34 28.29C61.47 28.29 61.57 28.29 61.7 28.28L61.97 28.28C62.64 28.28 63.16 28.4 63.49 28.64ZM90.3 29.63C90.42 29.95 90.48 30.37 90.48 30.87L90.48 32.87C90.48 33.37 90.42 33.79 90.3 34.12C90.18 34.45 90 34.71 89.8 34.9C89.59 35.1 89.33 35.24 89.05 35.31C88.75 35.39 88.44 35.43 88.1 35.43C87.84 35.43 87.63 35.43 87.45 35.41C87.27 35.4 87.11 35.4 86.96 35.39L86.96 28.36C87.11 28.35 87.27 28.35 87.45 28.33C87.63 28.32 87.84 28.32 88.1 28.32L88.1 28.32C88.44 28.32 88.75 28.36 89.05 28.43C89.33 28.51 89.59 28.64 89.8 28.83C90 29.04 90.18 29.29 90.3 29.63ZM71.95 28.68C72.29 28.91 72.45 29.28 72.45 29.79L72.45 29.91C72.45 30.51 72.29 30.91 71.97 31.14C71.64 31.37 71.13 31.48 70.42 31.48C70.37 31.48 70.29 31.48 70.18 31.47L70.18 31.47C70.06 31.47 69.95 31.47 69.83 31.45C69.71 31.45 69.59 31.45 69.48 31.44L69.22 31.44L69.22 28.4C69.29 28.39 69.37 28.39 69.48 28.37L69.48 28.37C69.57 28.37 69.68 28.37 69.8 28.36C69.92 28.36 70.03 28.36 70.15 28.35L70.42 28.35C71.1 28.35 71.61 28.46 71.95 28.68ZM80.95 28.98C81.28 29.4 81.44 30.05 81.44 30.95L81.44 32.78C81.44 33.68 81.28 34.33 80.95 34.74C80.64 35.16 80.14 35.36 79.48 35.36C78.8 35.36 78.3 35.16 77.99 34.74C77.67 34.33 77.51 33.68 77.51 32.78L77.51 30.95C77.51 30.05 77.67 29.4 77.99 28.98C78.3 28.58 78.8 28.37 79.48 28.37C80.14 28.37 80.64 28.58 80.95 28.98ZM127.81 28.98C128.14 29.4 128.3 30.05 128.3 30.95L128.3 32.78C128.3 33.68 128.14 34.33 127.81 34.74C127.5 35.16 127 35.36 126.34 35.36C125.66 35.36 125.16 35.16 124.85 34.74C124.53 34.33 124.37 33.68 124.37 32.78L124.37 30.95C124.37 30.05 124.53 29.4 124.85 28.98C125.16 28.58 125.66 28.37 126.34 28.37C127 28.37 127.5 28.58 127.81 28.98Z" fill="#5C8EE6" fill-opacity="1.000000" fill-rule="evenodd"></path>
    </g>
  </symbol>
  <symbol xmlns="http://www.w3.org/2000/svg" xmlns:xlink="http://www.w3.org/1999/xlink" viewBox="0 0 15.9884 16.0197" id="phone">
    <desc>Created with Pixso.</desc>
    <defs></defs>
    <path id="Vector" d="M15.96 12.08L15.21 15.23C15.12 15.7 14.75 16.01 14.28 16.01C6.4 15.98 0 9.58 0 1.7C0 1.23 0.28 0.86 0.75 0.76L3.9 0.01C4.34 -0.08 4.81 0.17 5 0.58L6.46 3.98C6.62 4.39 6.53 4.86 6.18 5.11L4.5 6.48C5.56 8.64 7.31 10.39 9.5 11.45L10.87 9.76C11.12 9.45 11.59 9.33 12 9.48L15.4 10.95C15.81 11.17 16.06 11.64 15.96 12.08Z" fill-opacity="1.000000" fill-rule="evenodd"></path>
  </symbol>
  <symbol fill="none" xmlns="http://www.w3.org/2000/svg" xmlns:xlink="http://www.w3.org/1999/xlink" viewBox="0 0 36 36" id="speed">
    <desc>Created with Pixso.</desc>
    <defs></defs>
    <rect id="Frame 37" rx="-0.500000" width="35.000000" height="35.000000" transform="translate(0.500000 0.500000)" fill="#FFFFFF" fill-opacity="0"></rect>
    <path id="Vector" d="M11.62 13.87C10.64 13.87 9.87 14.69 9.87 15.62C9.87 16.6 10.64 17.37 11.62 17.37C12.55 17.37 13.37 16.6 13.37 15.62C13.37 14.69 12.55 13.87 11.62 13.87ZM17.75 6C9.05 6 2 13.05 2 21.75C2 24.64 2.76 27.38 4.13 29.67C4.4 30.22 5 30.55 5.6 30.55L29.83 30.55C30.43 30.55 31.03 30.22 31.36 29.67C32.67 27.38 33.5 24.64 33.5 21.75C33.5 13.05 26.44 6 17.75 6ZM17.75 27.87C16.49 27.87 15.56 26.94 15.56 25.68C15.56 24.48 16.49 23.5 17.75 23.5C18.95 23.5 19.93 24.48 19.93 25.68C19.93 26.94 18.95 27.87 17.75 27.87ZM29.34 27.87L22.01 27.87C22.34 27.21 22.56 26.5 22.56 25.68C22.56 25.35 22.5 25.03 22.39 24.7L27.42 22.57C28.08 22.24 28.41 21.47 28.14 20.82C27.81 20.16 27.04 19.83 26.39 20.1L21.19 22.35C20.32 21.47 19.06 20.87 17.75 20.87C15.07 20.87 12.93 23.06 12.93 25.68C12.93 26.5 13.1 27.21 13.48 27.87L6.1 27.87C5.11 26.01 4.62 23.93 4.62 21.75C4.62 14.53 10.47 8.62 17.75 8.62C24.96 8.62 30.87 14.53 30.87 21.75C30.87 23.93 30.32 26.01 29.34 27.87ZM9 20C8.01 20 7.25 20.82 7.25 21.75C7.25 22.73 8.01 23.5 9 23.5C9.92 23.5 10.75 22.73 10.75 21.75C10.75 20.82 9.92 20 9 20ZM17.75 11.25C16.76 11.25 16 12.07 16 13C16 13.98 16.76 14.75 17.75 14.75C18.67 14.75 19.5 13.98 19.5 13C19.5 12.07 18.67 11.25 17.75 11.25ZM23.87 13.87C22.89 13.87 22.12 14.69 22.12 15.62C22.12 16.6 22.89 17.37 23.87 17.37C24.8 17.37 25.62 16.6 25.62 15.62C25.62 14.69 24.8 13.87 23.87 13.87Z" fill="#5C8EE6" fill-opacity="1.000000" fill-rule="nonzero"></path>
  </symbol>
  <symbol fill="none" xmlns="http://www.w3.org/2000/svg" xmlns:xlink="http://www.w3.org/1999/xlink" viewBox="0 0 36 36" id="time">
    <desc>Created with Pixso.</desc>
    <defs></defs>
    <rect id="Frame 36" rx="-0.500000" width="35.000000" height="35.000000" transform="translate(0.500000 0.500000)" fill="#FFFFFF" fill-opacity="0"></rect>
    <path id="Vector" d="M20.12 5.75L20.34 5.75C20.67 5.75 21 5.47 21 5.09L21 4.65C21 4.32 20.67 4 20.34 4L0.65 4C0.27 4 0 4.32 0 4.65L0 5.09C0 5.47 0.27 5.75 0.65 5.75L0.87 5.75C0.87 10.78 3.28 16.35 7.92 18C3.22 19.69 0.87 25.27 0.87 30.25L0.65 30.25C0.27 30.25 0 30.57 0 30.9L0 31.34C0 31.72 0.27 32 0.65 32L20.34 32C20.67 32 21 31.72 21 31.34L21 30.9C21 30.57 20.67 30.25 20.34 30.25L20.12 30.25C20.12 25.27 17.66 19.69 13.01 18C17.71 16.35 20.12 10.78 20.12 5.75ZM2.62 5.75L18.37 5.75C18.37 11.82 14.82 16.68 10.5 16.68C6.12 16.68 2.62 11.82 2.62 5.75ZM18.37 30.25L2.62 30.25C2.62 24.23 6.12 19.31 10.5 19.31C14.82 19.31 18.37 24.23 18.37 30.25ZM14.71 12.03C15.03 11.65 14.71 11 14.16 11L6.78 11C6.23 11 5.9 11.65 6.23 12.03C6.34 12.2 6.45 12.36 6.61 12.53C6.72 12.69 6.89 12.75 7.1 12.75L13.83 12.75C14.05 12.75 14.21 12.69 14.32 12.53C14.49 12.36 14.6 12.2 14.71 12.03ZM5.35 26.75C5.03 26.75 4.81 26.96 4.7 27.24C4.7 27.4 4.64 27.57 4.59 27.73C4.53 28.11 4.81 28.5 5.25 28.5L15.69 28.5C16.13 28.5 16.4 28.11 16.35 27.73C16.29 27.57 16.24 27.4 16.24 27.24C16.13 26.96 15.91 26.75 15.58 26.75L5.35 26.75Z" fill="#5C8EE6" fill-opacity="1.000000" fill-rule="nonzero"></path>
  </symbol>
  <symbol viewBox="0 0 36 24" fill="none" xmlns="http://www.w3.org/2000/svg" id="arrow-next">
   <path d="M25.8384 4.68629L25.1313 5.3934L31.5859 11.848L3 11.8479L3.00035 12.8482L31.5762 12.848L25.1313 19.2929L25.8384 20L32.9904 12.848H33.0001V12.   8383L33.4953 12.3431L25.8384 4.68629Z" fill="white"/>
  </symbol>
  <symbol viewBox="0 0 36 24" fill="none" xmlns="http://www.w3.org/2000/svg" id="arrow-prev">
   <path d="M10.1616 4.68629L10.8687 5.3934L4.41405 11.848L33 11.8479L32.9997 12.8482L4.42381 12.848L10.8687 19.2929L10.1616 20L3.00959 12.848H2.99993V12.8383L2.50473 12.3431L10.1616 4.68629Z" fill="white"/>
  </symbol>


  <symbol viewBox="0 0 180 180" xmlns="http://www.w3.org/2000/svg" id="ag">
<path d="M118.028 56.4162H104.453L101.002 50.8727L94.3273 40.5212L78.4889 65.1273L71.1919 76.5535L65.2525 85.8303L57.9556 97.2L51.9596 106.477L44.6626 117.903H31.1434L38.4404 106.477L44.3798 97.2L51.6768 85.8303L57.6162 76.5535L87.5394 30H101.115L107.733 40.3515L114.521 50.8727L118.028 56.4162Z"/>
<path d="M157.511 117.903H57.2202L65.3091 106.477L71.2485 97.2L78.5455 85.8303L84.5414 76.5535L91.8384 65.1273H123.685L130.982 76.5535H98.0606L92.1212 85.8303L84.8242 97.2L78.8848 106.477H136.638L130.699 97.2H96.5899L104.17 85.8303H136.921L144.275 97.2L150.214 106.477L157.511 117.903Z"/>
<path d="M39.8545 150.089L38.2141 147.147H29.2202L31.4263 143.018H36.0646L32.7838 136.853L25.7131 150.089H20L29.8424 132.271C30.3515 131.309 31.1434 130.857 32.1616 130.857H33.3495C34.3111 130.857 35.103 131.309 35.6121 132.271L45.4545 150.089H39.8545Z"/>
<path d="M54.901 150.089C53.4303 150.089 52.0727 149.863 50.8283 149.41C49.5838 148.958 48.5091 148.279 47.604 147.43C46.699 146.638 45.9636 145.62 45.4545 144.432C44.9455 143.244 44.7192 141.943 44.7192 140.473C44.7192 139.059 44.9455 137.701 45.4545 136.57C45.9636 135.382 46.699 134.364 47.604 133.515C48.5091 132.667 49.5838 131.988 50.8283 131.535C52.0727 131.083 53.4303 130.857 54.901 130.857H65.196V135.778H54.5616C53.8828 135.778 53.2606 135.891 52.695 136.117C52.0727 136.343 51.6202 136.683 51.1677 137.079C50.7717 137.531 50.4323 137.984 50.2061 138.606C49.9798 139.172 49.8667 139.794 49.8667 140.473C49.8667 141.152 49.9798 141.774 50.2061 142.396C50.4323 142.962 50.7717 143.414 51.1677 143.81C51.6202 144.263 52.0727 144.545 52.695 144.772C53.2606 144.998 53.8828 145.111 54.5616 145.111H60.2747V142.509H54.0525V138.38H65.196V150.089H54.901Z"/>
<path d="M82.5051 150.089V135.778H75.3778V130.857H94.7232V135.778H87.6525V150.089H82.5051Z"/>
<path d="M103.887 142.509V138.38H115.257V142.509H103.887ZM96.9859 150.089V130.857H115.426V135.778H102.133V145.111H115.483V150.089H96.9859Z"/>
<path d="M128.097 150.089C126.57 150.089 125.212 149.863 123.968 149.41C122.723 148.958 121.648 148.279 120.8 147.43C119.895 146.638 119.16 145.62 118.651 144.432C118.141 143.244 117.859 141.943 117.859 140.473C117.859 139.059 118.141 137.701 118.651 136.57C119.16 135.382 119.895 134.364 120.8 133.515C121.648 132.667 122.723 131.988 123.968 131.535C125.212 131.083 126.57 130.857 128.097 130.857H137.487V135.778H127.701C127.022 135.778 126.4 135.891 125.834 136.117C125.269 136.343 124.76 136.683 124.364 137.079C123.968 137.531 123.628 137.984 123.402 138.606C123.176 139.172 123.063 139.794 123.063 140.473C123.063 141.152 123.176 141.774 123.402 142.396C123.628 142.962 123.968 143.414 124.364 143.81C124.76 144.263 125.269 144.545 125.834 144.772C126.4 144.998 127.022 145.111 127.701 145.111H137.487V150.089H128.097Z"/>
<path d="M154.853 150.089V142.622H147.329V137.927H154.853V130.857H160V150.089H154.853ZM140.372 150.089V130.857H145.576V150.089H140.372Z"/>
</symbol>


<symbol viewBox="0 0 180 180" xmlns="http://www.w3.org/2000/svg" id="al">
<path d="M55.1146 141.929C55.1146 142.074 55.0664 142.18 54.9796 142.257C54.8929 142.343 54.7772 142.382 54.6327 142.382H51.828C51.7027 142.382 51.5967 142.334 51.51 142.247C51.4232 142.16 51.3558 142.054 51.3269 141.929L50.1028 136.898H44.0117L42.7877 141.929C42.7588 142.054 42.6913 142.16 42.6046 142.247C42.5178 142.334 42.4118 142.382 42.2865 142.382H39.4819C39.3373 142.382 39.2217 142.343 39.1349 142.257C39.0482 142.18 39 142.074 39 141.929C39 141.91 39.0096 141.89 39.0096 141.881C39.0193 141.861 39.0289 141.833 39.0289 141.794L43.3756 125.178C43.5298 124.561 43.7611 124.08 44.0599 123.723C44.3587 123.376 44.6864 123.106 45.0333 122.913C45.3706 122.73 45.7272 122.615 46.0935 122.557C46.4501 122.509 46.7778 122.48 47.0573 122.48C47.3368 122.48 47.6645 122.509 48.0211 122.557C48.3873 122.615 48.7439 122.73 49.0812 122.913C49.4282 123.106 49.7462 123.376 50.0547 123.723C50.3534 124.08 50.5847 124.561 50.7389 125.178L55.0856 141.794C55.0856 141.833 55.0953 141.861 55.0953 141.881C55.1049 141.89 55.1146 141.91 55.1146 141.929ZM47.4813 126.007C47.4428 125.843 47.4042 125.737 47.3464 125.67C47.2982 125.612 47.2018 125.583 47.0573 125.583C46.9127 125.583 46.8163 125.612 46.7681 125.67C46.7103 125.737 46.6718 125.843 46.6332 126.007L44.7249 133.872H49.3896L47.4813 126.007Z"/>
<path d="M68.2317 141.669C68.2317 141.861 68.1932 141.996 68.1161 142.064C68.0293 142.131 67.8944 142.189 67.7016 142.218C67.5089 142.276 67.2294 142.324 66.8631 142.363C66.5065 142.411 66.1114 142.449 65.6873 142.488C65.2633 142.526 64.8295 142.546 64.3862 142.565C63.9429 142.584 63.5477 142.594 63.1911 142.594C62.3333 142.594 61.5237 142.526 60.7816 142.382C60.0395 142.237 59.3938 141.967 58.8541 141.572C58.3047 141.177 57.871 140.618 57.5529 139.915C57.2349 139.211 57.071 138.295 57.071 137.158V123.222C57.071 123.077 57.1289 122.952 57.2349 122.846C57.3409 122.74 57.4662 122.692 57.6011 122.692H60.2226C60.3672 122.692 60.4925 122.74 60.5985 122.846C60.7045 122.952 60.7624 123.077 60.7624 123.222V137.158C60.7624 138.045 60.9069 138.642 61.2057 138.96C61.5045 139.279 62.0442 139.442 62.8249 139.442H67.7016C67.8462 139.442 67.9619 139.491 68.0679 139.597C68.1739 139.703 68.2317 139.828 68.2317 139.972V141.669Z"/>
<path d="M74.4289 141.852C74.4289 141.996 74.3807 142.112 74.2747 142.218C74.1687 142.324 74.0434 142.382 73.8988 142.382H71.2773C71.1327 142.382 71.0171 142.324 70.9111 142.218C70.805 142.112 70.7472 141.996 70.7472 141.852V123.193C70.7472 123.058 70.805 122.933 70.9111 122.836C71.0171 122.74 71.1327 122.692 71.2773 122.692H73.8988C74.0434 122.692 74.1687 122.74 74.2747 122.836C74.3807 122.933 74.4289 123.058 74.4289 123.193V141.852Z"/>
<path d="M93.03 141.929C93.03 142.074 92.9915 142.18 92.9047 142.257C92.818 142.343 92.7023 142.382 92.5578 142.382H89.7435C89.6278 142.382 89.5218 142.334 89.4351 142.247C89.3387 142.16 89.2809 142.054 89.2423 141.929L88.0279 136.898H81.9272L80.7128 141.929C80.6742 142.054 80.6164 142.16 80.5297 142.247C80.4333 142.334 80.3273 142.382 80.2116 142.382H77.3974C77.2624 142.382 77.1468 142.343 77.0504 142.257C76.9636 142.18 76.9251 142.074 76.9251 141.929C76.9251 141.91 76.9251 141.89 76.9347 141.881C76.9444 141.861 76.9444 141.833 76.9444 141.794L81.2911 125.178C81.4549 124.561 81.6862 124.08 81.985 123.723C82.2838 123.376 82.6018 123.106 82.9488 122.913C83.2957 122.73 83.6523 122.615 84.0089 122.557C84.3752 122.509 84.6932 122.48 84.9824 122.48C85.2619 122.48 85.5799 122.509 85.9462 122.557C86.3124 122.615 86.6594 122.73 87.0063 122.913C87.3533 123.106 87.6713 123.376 87.9701 123.723C88.2689 124.08 88.5002 124.561 88.664 125.178L93.0107 141.794C93.0107 141.833 93.0107 141.861 93.0204 141.881C93.03 141.89 93.03 141.91 93.03 141.929ZM85.4064 126.007C85.3679 125.843 85.3197 125.737 85.2715 125.67C85.2137 125.612 85.1173 125.583 84.9824 125.583C84.8378 125.583 84.7414 125.612 84.6836 125.67C84.6354 125.737 84.5872 125.843 84.5583 126.007L82.65 133.872H87.3147L85.4064 126.007Z"/>
<path d="M110.417 141.322C110.417 141.621 110.32 141.871 110.118 142.074C109.906 142.276 109.655 142.382 109.357 142.382H106.677C106.369 142.382 106.07 142.343 105.791 142.257C105.521 142.18 105.28 141.9 105.068 141.428L99.179 128.523C99.1115 128.378 99.0344 128.311 98.9477 128.311C98.8513 128.311 98.8127 128.378 98.8127 128.523V141.852C98.8127 141.996 98.7646 142.112 98.6682 142.218C98.5718 142.324 98.4465 142.382 98.3116 142.382H96.0563C95.9117 142.382 95.7864 142.324 95.6804 142.218C95.5744 142.112 95.5262 141.996 95.5262 141.852V123.752C95.5262 123.453 95.6226 123.203 95.8346 123C96.037 122.798 96.2876 122.692 96.5864 122.692H99.4488C99.7283 122.692 99.9597 122.74 100.123 122.846C100.287 122.952 100.451 123.183 100.615 123.54L106.783 137.158C106.841 137.303 106.909 137.37 106.995 137.37C107.092 137.37 107.13 137.293 107.13 137.129V123.193C107.13 122.856 107.304 122.692 107.631 122.692H109.916C110.253 122.692 110.417 122.856 110.417 123.193V141.322Z"/>
<path d="M126.107 141.563C126.107 141.755 126.049 141.89 125.943 141.967C125.837 142.054 125.702 142.112 125.519 142.17C125.413 142.208 125.24 142.247 124.98 142.286C124.719 142.334 124.411 142.372 124.035 142.42C123.669 142.469 123.254 142.507 122.792 142.536C122.339 142.575 121.847 142.594 121.336 142.594C120.546 142.594 119.698 142.478 118.821 142.247C117.934 142.016 117.134 141.601 116.402 140.994C115.669 140.377 115.072 139.558 114.59 138.507C114.108 137.467 113.867 136.127 113.867 134.488V130.585C113.867 128.927 114.108 127.568 114.59 126.518C115.072 125.467 115.669 124.639 116.402 124.041C117.134 123.443 117.934 123.029 118.821 122.807C119.698 122.586 120.546 122.48 121.336 122.48C121.847 122.48 122.339 122.499 122.792 122.528C123.254 122.566 123.669 122.605 124.035 122.653C124.411 122.692 124.719 122.74 124.98 122.798C125.24 122.846 125.413 122.884 125.519 122.904C125.702 122.952 125.837 123.019 125.943 123.106C126.049 123.183 126.107 123.318 126.107 123.511V125.284C126.107 125.448 126.069 125.583 125.992 125.689C125.905 125.795 125.77 125.843 125.577 125.843H125.519C125.298 125.824 125.018 125.805 124.69 125.776C124.363 125.757 124.016 125.728 123.64 125.708C123.274 125.699 122.888 125.679 122.503 125.66C122.117 125.641 121.741 125.631 121.385 125.631C120.826 125.631 120.305 125.718 119.843 125.882C119.37 126.055 118.966 126.325 118.638 126.711C118.301 127.087 118.031 127.597 117.838 128.233C117.645 128.87 117.549 129.65 117.549 130.585V134.488C117.549 135.404 117.645 136.175 117.838 136.811C118.031 137.447 118.301 137.968 118.638 138.353C118.966 138.739 119.37 139.018 119.843 139.192C120.305 139.356 120.826 139.442 121.385 139.442C121.741 139.442 122.117 139.433 122.503 139.413C122.888 139.394 123.274 139.375 123.64 139.356C124.016 139.346 124.363 139.317 124.69 139.298C125.018 139.269 125.298 139.25 125.519 139.23H125.577C125.77 139.23 125.905 139.279 125.992 139.385C126.069 139.491 126.107 139.625 126.107 139.78V141.563Z"/>
<path d="M141.027 141.669C141.027 141.861 140.988 141.996 140.911 142.064C140.824 142.131 140.689 142.189 140.497 142.218C140.285 142.257 140.053 142.295 139.793 142.343C139.533 142.382 139.215 142.42 138.839 142.459C138.463 142.498 138 142.526 137.461 142.555C136.921 142.584 136.256 142.594 135.456 142.594C134.598 142.594 133.789 142.526 133.047 142.382C132.304 142.237 131.649 141.967 131.1 141.572C130.55 141.177 130.117 140.618 129.799 139.915C129.471 139.211 129.317 138.295 129.317 137.158V127.915C129.317 126.778 129.471 125.863 129.799 125.159C130.117 124.446 130.55 123.896 131.1 123.501C131.649 123.106 132.304 122.836 133.047 122.692C133.789 122.547 134.598 122.48 135.456 122.48C136.256 122.48 136.921 122.489 137.461 122.518C138 122.547 138.463 122.576 138.839 122.615C139.215 122.644 139.533 122.692 139.793 122.73C140.053 122.778 140.285 122.817 140.497 122.846C140.689 122.884 140.824 122.942 140.911 123.01C140.988 123.077 141.027 123.212 141.027 123.405V125.101C141.027 125.246 140.969 125.371 140.863 125.477C140.757 125.583 140.641 125.631 140.497 125.631H135.09C134.309 125.631 133.769 125.795 133.461 126.113C133.153 126.431 132.998 127.029 132.998 127.915V130.778H140.179C140.323 130.778 140.439 130.826 140.545 130.932C140.651 131.038 140.709 131.163 140.709 131.308V133.216C140.709 133.351 140.651 133.477 140.545 133.583C140.439 133.689 140.323 133.746 140.179 133.746H132.998V137.158C132.998 138.045 133.153 138.642 133.461 138.96C133.769 139.279 134.309 139.442 135.09 139.442H140.497C140.641 139.442 140.757 139.491 140.863 139.597C140.969 139.703 141.027 139.828 141.027 139.972V141.669Z"/>
<path d="M48.8499 151.23C48.8499 151.972 48.715 152.598 48.4548 153.099C48.1849 153.61 47.8283 154.015 47.385 154.333C46.932 154.641 46.4212 154.853 45.8333 154.988C45.2454 155.114 44.6285 155.181 43.9732 155.181C43.7418 155.181 43.4816 155.171 43.1925 155.152C42.8937 155.143 42.6528 155.123 42.46 155.114V159.528C42.46 159.614 42.4311 159.692 42.3733 159.759C42.3058 159.827 42.2287 159.865 42.142 159.865H40.4553C40.3589 159.865 40.2818 159.827 40.2144 159.759C40.1469 159.692 40.1084 159.614 40.1084 159.528V147.895C40.1084 147.731 40.1565 147.606 40.2529 147.538C40.3493 147.461 40.4842 147.413 40.6577 147.394C41.0914 147.326 41.6022 147.268 42.1805 147.23C42.7588 147.191 43.3563 147.172 43.9732 147.172C44.6285 147.172 45.2454 147.23 45.8333 147.355C46.4212 147.48 46.9416 147.692 47.385 148.001C47.8283 148.3 48.1849 148.704 48.4548 149.206C48.715 149.707 48.8499 150.333 48.8499 151.075V151.23ZM46.4983 151.066C46.4983 150.352 46.2862 149.851 45.8622 149.553C45.4477 149.244 44.8116 149.1 43.9635 149.1C43.8768 149.1 43.7611 149.1 43.6165 149.109C43.4816 149.109 43.337 149.119 43.1925 149.128C43.0383 149.128 42.9033 149.138 42.7781 149.138C42.6431 149.148 42.5371 149.157 42.46 149.167V153.205C42.5275 153.205 42.6335 153.205 42.7781 153.215C42.913 153.215 43.0576 153.225 43.2118 153.234C43.366 153.234 43.5105 153.244 43.6551 153.244C43.79 153.253 43.896 153.253 43.9635 153.253C44.8791 153.253 45.5249 153.09 45.92 152.743C46.3055 152.405 46.4983 151.895 46.4983 151.22V151.066Z"/>
<path d="M59.8178 159.663C59.8178 159.798 59.7504 159.865 59.6154 159.865H57.5529C57.4662 159.865 57.3891 159.827 57.3505 159.759C57.3024 159.692 57.2542 159.614 57.2156 159.528L54.7772 155.027H54.5459C54.3146 155.027 54.064 155.017 53.7652 155.008C53.4761 154.988 53.2352 154.969 53.0424 154.959V159.528C53.0424 159.614 53.0039 159.692 52.946 159.759C52.8882 159.827 52.8111 159.865 52.7147 159.865H51.0281C50.9413 159.865 50.8642 159.827 50.7968 159.759C50.7293 159.692 50.6908 159.614 50.6908 159.528V147.895C50.6908 147.731 50.7389 147.606 50.8353 147.538C50.9317 147.461 51.0666 147.413 51.2305 147.394C51.6738 147.326 52.1846 147.268 52.7533 147.23C53.3315 147.191 53.9291 147.172 54.5556 147.172C55.2013 147.172 55.8278 147.239 56.4157 147.365C57.0036 147.5 57.5144 147.712 57.9577 148.001C58.4107 148.29 58.7673 148.685 59.0275 149.177C59.2974 149.668 59.4227 150.266 59.4227 150.989V151.143C59.4227 152.049 59.2203 152.772 58.8059 153.34C58.3914 153.899 57.8324 154.323 57.1289 154.593L59.7793 159.528C59.8082 159.557 59.8178 159.605 59.8178 159.663ZM57.0807 150.989C57.0807 150.352 56.8686 149.89 56.4446 149.61C56.0205 149.321 55.3844 149.186 54.5459 149.186C54.4495 149.186 54.3339 149.186 54.199 149.196C54.0544 149.196 53.9098 149.206 53.7652 149.206C53.6207 149.215 53.4857 149.215 53.3508 149.225C53.2255 149.234 53.1195 149.244 53.0424 149.254V153.051C53.1099 153.051 53.2159 153.051 53.3508 153.061C53.4954 153.07 53.64 153.07 53.7942 153.08C53.9484 153.08 54.0929 153.09 54.2279 153.099C54.3724 153.099 54.4785 153.099 54.5459 153.099C55.423 153.099 56.0687 152.964 56.4735 152.685C56.8783 152.396 57.0807 151.885 57.0807 151.143V150.989Z"/>
<path d="M70.6605 154.728C70.6605 155.663 70.5448 156.463 70.3039 157.128C70.0533 157.793 69.7256 158.333 69.3015 158.757C68.8678 159.181 68.3667 159.489 67.7787 159.692C67.1908 159.894 66.5547 160 65.8512 160C65.1572 160 64.5211 159.894 63.9332 159.692C63.3453 159.489 62.8441 159.181 62.4104 158.757C61.9864 158.333 61.6587 157.793 61.4081 157.128C61.1671 156.463 61.0515 155.663 61.0515 154.728V152.444C61.0515 151.519 61.1671 150.719 61.4081 150.054C61.6587 149.379 61.9864 148.839 62.4104 148.415C62.8441 147.991 63.3453 147.683 63.9332 147.48C64.5211 147.278 65.1572 147.172 65.8512 147.172C66.5547 147.172 67.1908 147.278 67.7787 147.48C68.3667 147.683 68.8678 147.991 69.3015 148.415C69.7256 148.839 70.0533 149.379 70.3039 150.054C70.5448 150.719 70.6605 151.519 70.6605 152.444V154.728ZM68.3185 152.444C68.3185 151.316 68.1161 150.497 67.7113 149.986C67.3161 149.475 66.6897 149.215 65.8512 149.215C65.0223 149.215 64.3958 149.475 64.0007 149.986C63.5959 150.497 63.3935 151.316 63.3935 152.444V154.728C63.3935 155.856 63.5959 156.675 64.0007 157.186C64.3958 157.697 65.0223 157.957 65.8512 157.957C66.6897 157.957 67.3161 157.697 67.7113 157.186C68.1161 156.675 68.3185 155.856 68.3185 154.728V152.444Z"/>
<path d="M81.9657 154.824C81.9657 156.501 81.5127 157.783 80.5875 158.67C79.6719 159.557 78.3611 160 76.6552 160C76.3468 160 76.0288 159.99 75.6914 159.981C75.3638 159.971 75.0361 159.952 74.7277 159.933C74.4192 159.904 74.1397 159.884 73.8892 159.865C73.6289 159.836 73.4362 159.817 73.3205 159.798C73.1663 159.769 73.0603 159.72 72.9832 159.643C72.9157 159.566 72.8772 159.441 72.8772 159.268V147.895C72.8772 147.731 72.9157 147.606 72.9832 147.529C73.0603 147.451 73.1663 147.394 73.3205 147.374C73.4362 147.355 73.6289 147.326 73.8892 147.307C74.1397 147.288 74.4192 147.259 74.7277 147.239C75.0361 147.22 75.3638 147.201 75.6914 147.191C76.0288 147.182 76.3468 147.172 76.6552 147.172C78.3611 147.172 79.6719 147.615 80.5875 148.502C81.5127 149.379 81.9657 150.661 81.9657 152.348V154.824ZM79.6237 152.348C79.6237 151.721 79.5466 151.191 79.3924 150.786C79.2382 150.372 79.0262 150.044 78.7659 149.803C78.4961 149.562 78.1877 149.389 77.8214 149.292C77.4552 149.196 77.06 149.148 76.6456 149.148C76.3275 149.148 76.0577 149.157 75.836 149.167C75.6047 149.177 75.4023 149.186 75.2288 149.196V157.986C75.4023 157.995 75.6047 158.005 75.836 158.024C76.0577 158.034 76.3275 158.034 76.6456 158.034C77.06 158.034 77.4552 157.986 77.8214 157.889C78.1877 157.803 78.4961 157.629 78.7659 157.388C79.0262 157.138 79.2382 156.819 79.3924 156.405C79.5466 155.991 79.6237 155.47 79.6237 154.834V152.348Z"/>
<path d="M93.3577 155.22C93.3577 156.116 93.242 156.868 93.0107 157.475C92.7794 158.092 92.4614 158.574 92.0469 158.949C91.6325 159.325 91.141 159.586 90.5723 159.749C90.0037 159.913 89.3869 160 88.7122 160C88.0376 160 87.4111 159.913 86.8425 159.749C86.2738 159.586 85.7823 159.325 85.3679 158.949C84.9631 158.574 84.6451 158.092 84.4137 157.475C84.1824 156.868 84.0668 156.116 84.0668 155.22V147.625C84.0668 147.538 84.0957 147.461 84.1632 147.403C84.2306 147.336 84.3077 147.307 84.4041 147.307H86.0715C86.1678 147.307 86.2449 147.336 86.3124 147.403C86.3799 147.461 86.4088 147.538 86.4088 147.625V155.229C86.4088 155.711 86.4473 156.135 86.5148 156.492C86.5823 156.839 86.6979 157.138 86.881 157.378C87.0545 157.619 87.2858 157.793 87.575 157.899C87.8737 158.015 88.2496 158.072 88.7122 158.072C89.1556 158.072 89.5315 158.015 89.8302 157.899C90.129 157.793 90.37 157.619 90.5434 157.378C90.7169 157.138 90.8422 156.839 90.9097 156.492C90.9771 156.135 91.0061 155.711 91.0061 155.229V147.625C91.0061 147.538 91.0446 147.461 91.1121 147.403C91.1795 147.336 91.2566 147.307 91.3434 147.307H93.0204C93.1071 147.307 93.1842 147.336 93.2517 147.403C93.3191 147.461 93.3577 147.538 93.3577 147.625V155.22Z"/>
<path d="M103.275 159.335C103.275 159.46 103.246 159.547 103.179 159.605C103.111 159.653 103.015 159.692 102.899 159.73C102.832 159.749 102.716 159.778 102.562 159.807C102.398 159.836 102.196 159.855 101.955 159.884C101.723 159.913 101.454 159.942 101.164 159.961C100.875 159.99 100.557 160 100.23 160C99.7283 160 99.1886 159.923 98.6296 159.778C98.061 159.634 97.5502 159.364 97.0876 158.978C96.6249 158.583 96.2394 158.063 95.931 157.398C95.6226 156.733 95.4684 155.875 95.4684 154.824V152.348C95.4684 151.287 95.6226 150.42 95.931 149.745C96.2394 149.08 96.6249 148.55 97.0876 148.165C97.5502 147.789 98.061 147.529 98.6296 147.384C99.1886 147.239 99.7283 147.172 100.23 147.172C100.557 147.172 100.875 147.182 101.164 147.211C101.454 147.23 101.723 147.259 101.955 147.278C102.196 147.307 102.398 147.345 102.562 147.374C102.716 147.413 102.832 147.432 102.899 147.442C103.015 147.48 103.111 147.519 103.179 147.567C103.246 147.615 103.275 147.712 103.275 147.827V148.965C103.275 149.061 103.246 149.148 103.198 149.215C103.15 149.283 103.063 149.321 102.938 149.321H102.899C102.755 149.312 102.581 149.292 102.369 149.273C102.167 149.263 101.945 149.244 101.704 149.234C101.463 149.225 101.222 149.215 100.981 149.196C100.731 149.186 100.49 149.186 100.268 149.186C99.9115 149.186 99.5741 149.234 99.2754 149.34C98.9766 149.447 98.726 149.63 98.514 149.871C98.2923 150.112 98.1285 150.43 98.0032 150.834C97.8779 151.249 97.82 151.75 97.82 152.348V154.824C97.82 155.412 97.8779 155.904 98.0032 156.318C98.1285 156.723 98.2923 157.051 98.514 157.292C98.726 157.542 98.9766 157.716 99.2754 157.822C99.5741 157.937 99.9115 157.986 100.268 157.986C100.49 157.986 100.731 157.976 100.981 157.966C101.222 157.957 101.463 157.947 101.704 157.937C101.945 157.928 102.167 157.909 102.369 157.889C102.581 157.88 102.755 157.86 102.899 157.851H102.938C103.063 157.851 103.15 157.889 103.198 157.957C103.246 158.024 103.275 158.101 103.275 158.207V159.335Z"/>
<path d="M113.414 148.965C113.414 149.051 113.376 149.128 113.308 149.186C113.241 149.244 113.164 149.263 113.077 149.263H110.118V159.528C110.118 159.614 110.089 159.692 110.022 159.759C109.954 159.827 109.867 159.865 109.781 159.865H108.104C108.017 159.865 107.94 159.827 107.872 159.759C107.805 159.692 107.766 159.614 107.766 159.528V149.263H104.817C104.721 149.263 104.644 149.244 104.576 149.186C104.509 149.128 104.48 149.051 104.48 148.965V147.625C104.48 147.538 104.509 147.461 104.576 147.403C104.644 147.336 104.721 147.307 104.817 147.307H113.077C113.164 147.307 113.241 147.336 113.308 147.403C113.376 147.461 113.414 147.538 113.414 147.625V148.965Z"/>
<path d="M117.452 159.528C117.452 159.614 117.414 159.692 117.346 159.759C117.279 159.827 117.202 159.865 117.115 159.865H115.438C115.351 159.865 115.274 159.827 115.207 159.759C115.139 159.692 115.101 159.614 115.101 159.528V147.625C115.101 147.538 115.139 147.461 115.207 147.403C115.274 147.336 115.351 147.307 115.438 147.307H117.115C117.202 147.307 117.279 147.336 117.346 147.403C117.414 147.461 117.452 147.538 117.452 147.625V159.528Z"/>
<path d="M129.259 154.728C129.259 155.663 129.143 156.463 128.902 157.128C128.661 157.793 128.324 158.333 127.9 158.757C127.466 159.181 126.965 159.489 126.377 159.692C125.789 159.894 125.153 160 124.459 160C123.756 160 123.119 159.894 122.532 159.692C121.953 159.489 121.443 159.181 121.018 158.757C120.585 158.333 120.257 157.793 120.016 157.128C119.775 156.463 119.65 155.663 119.65 154.728V152.444C119.65 151.519 119.775 150.719 120.016 150.054C120.257 149.379 120.585 148.839 121.018 148.415C121.443 147.991 121.953 147.683 122.532 147.48C123.119 147.278 123.756 147.172 124.459 147.172C125.153 147.172 125.789 147.278 126.377 147.48C126.965 147.683 127.466 147.991 127.9 148.415C128.324 148.839 128.661 149.379 128.902 150.054C129.143 150.719 129.259 151.519 129.259 152.444V154.728ZM126.917 152.444C126.917 151.316 126.714 150.497 126.31 149.986C125.914 149.475 125.288 149.215 124.459 149.215C123.621 149.215 123.004 149.475 122.599 149.986C122.194 150.497 122.002 151.316 122.002 152.444V154.728C122.002 155.856 122.194 156.675 122.599 157.186C123.004 157.697 123.621 157.957 124.459 157.957C125.288 157.957 125.914 157.697 126.31 157.186C126.714 156.675 126.917 155.856 126.917 154.728V152.444Z"/>
<path d="M140.969 159.19C140.969 159.374 140.911 159.537 140.776 159.672C140.651 159.798 140.487 159.865 140.294 159.865H138.588C138.386 159.865 138.203 159.836 138.029 159.788C137.846 159.74 137.692 159.557 137.557 159.258L133.808 151.027C133.76 150.931 133.712 150.892 133.654 150.892C133.596 150.892 133.577 150.931 133.577 151.027V159.528C133.577 159.614 133.538 159.692 133.48 159.759C133.413 159.827 133.345 159.865 133.249 159.865H131.813C131.726 159.865 131.649 159.827 131.582 159.759C131.514 159.692 131.476 159.614 131.476 159.528V147.982C131.476 147.789 131.543 147.635 131.668 147.5C131.803 147.374 131.957 147.307 132.15 147.307H133.981C134.155 147.307 134.299 147.345 134.405 147.413C134.511 147.48 134.618 147.625 134.724 147.847L138.656 156.53C138.694 156.627 138.733 156.665 138.791 156.665C138.849 156.665 138.877 156.617 138.877 156.521V147.625C138.877 147.413 138.983 147.307 139.196 147.307H140.651C140.863 147.307 140.969 147.413 140.969 147.625V159.19Z"/>
<path fill-rule="evenodd" clip-rule="evenodd" d="M89.9459 29.8788C94.5721 29.8788 98.9862 30.7848 103.015 32.4329V64.0162C103.015 71.1772 97.2129 76.9792 90.0519 76.9792C87.0063 76.9792 84.2113 75.9287 81.9946 74.1746V85.6533C84.5005 86.5882 87.2184 87.099 90.0519 87.099C104.133 87.099 113.183 75.9769 113.183 62.4935V26.573C106.427 22.4095 98.4658 20 89.9459 20C65.4367 20 45.573 39.8637 45.573 64.3728C45.573 78.3671 52.0497 90.8481 62.1695 98.9825V84.8437C57.9481 79.1188 55.4422 72.035 55.4422 64.3728C55.4422 45.3187 70.8918 29.8788 89.9459 29.8788Z"/>
<path fill-rule="evenodd" clip-rule="evenodd" d="M90.0808 98.8958C85.4546 98.8958 81.0405 97.9898 77.0118 96.3321V64.7487C77.0118 57.5974 82.8138 51.7858 89.9748 51.7858C93.0204 51.7858 95.8154 52.8363 98.0321 54.6V43.1213C95.5262 42.1864 92.8083 41.6756 89.9748 41.6756C75.8938 41.6756 66.8342 52.7881 66.8342 66.2811V102.202C73.6 106.365 81.5609 108.775 90.0808 108.775C114.59 108.775 134.454 88.9013 134.454 64.4018C134.454 50.4075 127.977 37.9265 117.848 29.7921V43.9309C122.079 49.6558 124.575 56.7396 124.575 64.4018C124.575 83.4559 109.135 98.8958 90.0808 98.8958Z"/>
</symbol>
<symbol viewBox="0 0 30 30" fill="none" xmlns="http://www.w3.org/2000/svg" id="him">
<path d="M22.3393 12.375L19.6675 15H10.2456L17.6518 7.64062C17.9331 7.35938 17.9331 6.89062 17.6518 6.60938C17.3706 6.28125 16.855 6.28125 16.5737 6.60938L4.52683 18.6094C2.74558 20.4375 2.41746 23.3906 4.10496 25.3594C5.08933 26.4375 6.40183 27 7.76121 27C9.02683 27 10.2456 26.5312 11.1831 25.5938L23.4175 13.4062C23.6987 13.125 23.6987 12.6562 23.4175 12.375C23.1362 12.0469 22.6206 12.0469 22.3393 12.375ZM10.1518 24.5625C9.49558 25.1719 8.65183 25.5 7.76121 25.5C6.77683 25.5 5.88621 25.0781 5.22996 24.375C4.10496 23.0625 4.29246 21 5.60496 19.6875L8.74558 16.5H18.1675L10.1518 24.5625ZM26.7925 11.4844L18.5425 3.23438C18.4018 3.09375 18.2143 3 18.0268 3C17.7925 3 17.605 3.09375 17.4643 3.23438C17.1831 3.51562 17.1831 4.03125 17.4643 4.3125L25.7143 12.5625C25.855 12.7031 26.0425 12.75 26.2768 12.75C26.4643 12.75 26.6518 12.7031 26.7925 12.5625C27.0737 12.2812 27.0737 11.7656 26.7925 11.4844Z" fill="#5C8EE6"/>
</symbol>
<symbol viewBox="0 0 30 30" fill="none" xmlns="http://www.w3.org/2000/svg" id="car">
<path d="M14.75 8.95312C15.9688 8.95312 17 7.92188 17 6.70312C17 5.71875 15.8281 3.9375 15.3594 3.23438C15.2188 3.09375 14.9844 3 14.75 3C14.4688 3 14.2344 3.09375 14.0938 3.28125C13.625 3.98438 12.5 5.76562 12.5 6.70312C12.5 7.96875 13.4844 8.95312 14.75 8.95312ZM14.75 5.10938C15.1719 5.85938 15.4531 6.51562 15.5 6.70312C15.5 7.125 15.125 7.45312 14.75 7.45312C14.3281 7.45312 14 7.125 14 6.70312C14 6.46875 14.2812 5.8125 14.75 5.10938ZM21.5 8.95312C22.7188 8.95312 23.75 7.96875 23.75 6.70312C23.75 5.76562 22.5781 3.98438 22.1094 3.28125C21.9688 3.09375 21.7344 3 21.5 3C21.2188 3 20.9844 3.09375 20.8438 3.28125C20.375 3.98438 19.25 5.76562 19.25 6.70312C19.25 7.96875 20.2344 8.95312 21.5 8.95312ZM21.5 5.10938C21.9219 5.85938 22.2031 6.51562 22.25 6.70312C22.25 7.125 21.875 7.45312 21.5 7.45312C21.0781 7.45312 20.75 7.125 20.75 6.70312C20.75 6.46875 21.0312 5.8125 21.5 5.10938ZM8 8.95312C9.21875 8.95312 10.25 7.96875 10.25 6.70312C10.25 5.76562 9.07812 3.98438 8.60938 3.28125C8.46875 3.09375 8.23438 3 8 3C7.71875 3 7.48438 3.09375 7.34375 3.28125C6.875 3.98438 5.75 5.76562 5.75 6.70312C5.75 7.96875 6.73438 8.95312 8 8.95312ZM8 5.10938C8.42188 5.8125 8.70312 6.46875 8.75 6.70312C8.75 7.125 8.375 7.45312 8 7.45312C7.57812 7.45312 7.25 7.125 7.25 6.70312C7.25 6.46875 7.53125 5.8125 8 5.10938ZM20 19.4531C19.3438 19.4531 18.875 19.9688 18.875 20.5781C18.875 21.2344 19.3438 21.7031 20 21.7031C20.6094 21.7031 21.125 21.2344 21.125 20.5781C21.125 19.9688 20.6094 19.4531 20 19.4531ZM22.3906 16.7812L21.6406 13.5469C21.3125 12.1875 20.1406 11.2031 18.7344 11.2031H10.5781C9.21875 11.2031 8 12.1875 7.67188 13.5469L6.92188 16.875C5.79688 17.4375 5 18.6094 5 19.9688V22.5469C5 23.4844 5.60938 24.3281 6.5 24.6094V26.2031C6.5 26.625 6.82812 26.9531 7.25 26.9531C7.625 26.9531 8 26.625 8 26.2031V24.7031H21.5V26.2031C21.5 26.625 21.8281 26.9531 22.25 26.9531C22.625 26.9531 23 26.625 23 26.2031V24.6094C23.8906 24.3281 24.4531 23.4844 24.5 22.5469V19.9688C24.5 18.6094 23.6562 17.3438 22.3906 16.7812ZM9.125 13.875C9.3125 13.2188 9.92188 12.75 10.625 12.75H18.7344C19.4375 12.75 20.0469 13.2188 20.1875 13.875L20.7969 16.5H8.5625L9.125 13.875ZM23 22.5469C23 22.9219 22.6719 23.25 22.2969 23.25H7.15625C6.78125 23.2031 6.5 22.9219 6.5 22.5469V19.9688C6.5 18.8906 7.39062 18 8.46875 18H20.9844C22.0625 18 23 18.8906 23 19.9688V22.5469ZM9.5 19.4531C8.84375 19.4531 8.375 19.9688 8.375 20.5781C8.375 21.2344 8.84375 21.7031 9.5 21.7031C10.1094 21.7031 10.625 21.2344 10.625 20.5781C10.625 19.9688 10.1094 19.4531 9.5 19.4531Z" fill="#5C8EE6"/>
</symbol>
<symbol viewBox="0 0 30 30" fill="none" xmlns="http://www.w3.org/2000/svg" id="eat">
<path d="M14.2743 3.60938C14.1805 3.23438 13.8055 2.95312 13.3837 3.04688C12.9618 3.14062 12.7274 3.51562 12.8212 3.9375L13.8993 9.32812C14.3212 11.5781 13.5243 13.2188 11.5087 14.1094L11.0399 14.2969L11.4618 24.8906C11.4618 25.0781 11.4149 25.2656 11.2743 25.3594C11.2274 25.4531 11.1337 25.5 10.993 25.5H9.58678C9.44616 25.5 9.35241 25.4531 9.25866 25.3594C9.16491 25.2656 9.07116 25.0781 9.07116 24.9375L9.49303 14.2969L9.02428 14.1094C7.00866 13.1719 6.21178 11.5781 6.63366 9.375L7.75866 3.9375C7.80553 3.51562 7.57116 3.14062 7.14928 3.04688C6.77428 2.95312 6.35241 3.23438 6.25866 3.60938L5.13366 9.09375C4.61803 11.8125 5.60241 13.9688 7.94616 15.2344L7.57116 24.8906C7.57116 25.4062 7.75866 25.9688 8.13366 26.3906C8.50866 26.8125 9.02428 27 9.58678 27H10.993C11.5555 27 12.0243 26.8125 12.3993 26.3906C12.7743 25.9688 12.9618 25.4062 12.9618 24.8438L12.5868 15.2344C14.8837 14.0156 15.9149 11.7656 15.3993 9.04688L14.2743 3.60938ZM22.8524 3C21.3524 3 18.8212 5.0625 17.6962 7.73438C16.8993 9.60938 16.1024 13.3125 19.7587 17.2969L19.4305 24.75C19.3837 25.4062 19.618 26.0156 20.0399 26.4375C20.4149 26.8125 20.8837 27 21.3524 27H22.5712C23.6493 27 24.5399 26.0625 24.5399 24.8438V4.82812C24.5399 3.84375 23.7899 3 22.8524 3ZM23.0399 24.8438C23.0399 25.2656 22.7587 25.5 22.5712 25.5H21.3524C21.2587 25.5 21.1649 25.4531 21.118 25.4062C20.9774 25.2656 20.9305 25.0312 20.9305 24.8438L21.3055 16.7344L21.0712 16.5C17.9305 13.2188 18.2587 10.2656 19.0555 8.34375C20.1337 5.85938 22.243 4.5 22.8524 4.5C22.8993 4.5 23.0399 4.64062 23.0399 4.82812V24.8438ZM8.74303 11.25C8.74303 11.25 8.74303 11.25 8.78991 11.25C9.16491 11.25 9.49303 10.9688 9.49303 10.5469L9.86803 3.79688C9.91491 3.42188 9.58678 3.04688 9.16491 3.04688C8.78991 3 8.41491 3.32812 8.41491 3.75L8.03991 10.5C7.99303 10.875 8.32116 11.25 8.74303 11.25ZM11.7899 11.25C12.2118 11.25 12.5399 10.875 12.493 10.5L12.118 3.75C12.118 3.32812 11.7899 3 11.368 3.04688C10.9462 3.04688 10.618 3.42188 10.6649 3.79688L11.0399 10.5469C11.0399 10.9688 11.368 11.25 11.7899 11.25Z" fill="#5C8EE6"/>
</symbol>
<symbol viewBox="0 0 30 30" fill="none" xmlns="http://www.w3.org/2000/svg" id="brush">
<path d="M22.5 3H7.5C6.65625 3 6 3.70312 6 4.5V18C6 19.6875 7.3125 21 9 21H12V24C12 25.6875 13.3125 27 15 27C16.6406 27 18 25.6875 18 24V21H21C22.6406 21 24 19.6875 24 18V4.5C24 3.70312 23.2969 3 22.5 3ZM22.5 18C22.5 18.8438 21.7969 19.5 21 19.5H16.5V24C16.5 24.8438 15.7969 25.5 15 25.5C14.1562 25.5 13.5 24.8438 13.5 24V19.5H9C8.15625 19.5 7.5 18.8438 7.5 18V16.5H22.5V18ZM22.5 15H7.5V4.5H22.5V15Z" fill="#5C8EE6"/>
</symbol>
<symbol viewBox="0 0 30 30" fill="none" xmlns="http://www.w3.org/2000/svg" id="cosmetic">
<path d="M15 22.5C15.375 22.5 15.75 22.1719 15.75 21.75V20.25H17.25C17.625 20.25 18 19.9219 18 19.5C18 19.125 17.625 18.75 17.25 18.75H15.75V17.25C15.75 16.875 15.375 16.5 15 16.5C14.5781 16.5 14.25 16.875 14.25 17.25V18.75H12.75C12.3281 18.75 12 19.125 12 19.5C12 19.9219 12.3281 20.25 12.75 20.25H14.25V21.75C14.25 22.1719 14.5781 22.5 15 22.5ZM3.75 13.5C4.125 13.5 4.5 13.1719 4.5 12.75V10.5H6C6.375 10.5 6.75 10.1719 6.75 9.75C6.75 9.375 6.375 9 6 9H4.5V6.75C4.5 6.375 4.125 6 3.75 6C3.32812 6 3 6.375 3 6.75V9H0.75C0.328125 9 0 9.375 0 9.75C0 10.0781 0.328125 10.5 0.75 10.5H3V12.75C3 13.1719 3.32812 13.5 3.75 13.5ZM29.25 22.5H27V20.25C27 19.875 26.625 19.5 26.25 19.5C25.8281 19.5 25.5 19.875 25.5 20.25V22.5H23.25C22.8281 22.5 22.5 22.875 22.5 23.25C22.5 23.625 22.8281 24 23.25 24H25.5V26.25C25.5 26.6719 25.8281 27 26.25 27C26.625 27 27 26.6719 27 26.25V24H29.25C29.625 24 29.9531 23.6719 29.9531 23.2969C29.9531 22.9219 29.625 22.5 29.25 22.5ZM21.375 24.5625C20.8594 24.5625 20.0625 25.5 17.9531 25.5H13.2188C11.4375 25.5 9.79688 24.6562 8.76562 23.25L4.73438 17.9062C4.54688 17.6719 4.45312 17.4375 4.45312 17.1562C4.45312 16.5469 4.96875 16.125 5.53125 16.125C5.76562 16.125 6.14062 16.2188 6.42188 16.5938L8.01562 18.7031C8.29688 19.0781 8.76562 19.3125 9.1875 19.3125C9.375 19.3125 10.5 19.1719 10.5 18.0469C10.5 18.0469 10.5 18.0469 10.5 18V7.17188C10.5 6.60938 10.9219 6 11.625 6C12.2344 6 12.75 6.51562 12.75 7.125V14.25C12.75 14.3438 12.8438 15.0469 13.5 15.0469C13.875 15.0469 14.2031 14.6719 14.2031 14.2969V5.67188C14.2031 5.10938 14.625 4.5 15.3281 4.5C15.9375 4.5 16.4531 5.01562 16.4531 5.625V14.25C16.4531 14.3438 16.5469 15.0469 17.2031 15.0469C17.5781 15.0469 17.9531 14.6719 17.9531 14.2969V7.17188C17.9531 6.60938 18.375 6 19.0781 6C19.6875 6 20.2031 6.51562 20.2031 7.125V14.2031C20.2031 14.3438 20.2969 15 20.9531 15C21.3281 15 21.7031 14.6719 21.7031 14.2969V9.42188C21.7031 8.8125 22.125 8.25 22.8281 8.25C23.4375 8.25 23.9531 8.76562 23.9531 9.375V17.1094C23.9531 17.4844 24.2812 17.8594 24.7031 17.8594C25.0781 17.8594 25.5 17.4844 25.5 17.1094V9.46875C25.5 8.4375 24.7031 6.75 22.8281 6.75C22.4531 6.75 22.0781 6.84375 21.7031 6.98438C21.6562 5.625 20.4844 4.5 19.0781 4.5C18.6094 4.5 18.1875 4.64062 17.8125 4.82812C17.4844 3.79688 16.5 3 15.3281 3C14.1562 3 13.2188 3.79688 12.8438 4.875C12.4688 4.64062 12.0469 4.5 11.625 4.5C9.75 4.5 9 6.23438 9 7.26562V17.4375L7.54688 15.6094C7.07812 15 6.32812 14.625 5.53125 14.625C4.125 14.625 3 15.7031 3 17.1562C3 17.7188 3.14062 18.3281 3.51562 18.7969L7.59375 24.1406C8.85938 25.9219 10.9688 27 13.2188 27H18C19.5 27 22.125 26.2969 22.125 25.3125C22.125 25.0312 21.9375 24.5625 21.375 24.5625Z" fill="#5C8EE6"/>
</symbol>
<symbol viewBox="0 0 30 30" fill="none" xmlns="http://www.w3.org/2000/svg" id="car-cosm">
<path d="M23.1406 16.8281L22.3906 13.5938C22.0625 12.2344 20.8906 11.25 19.4844 11.25H11.375C9.96875 11.25 8.75 12.2344 8.42188 13.5938L7.67188 16.9219C6.54688 17.4844 5.75 18.6562 5.75 20.0156V22.5938C5.75 23.5312 6.35938 24.375 7.25 24.6562V26.25C7.25 26.6719 7.57812 27 8 27C8.375 27 8.75 26.6719 8.75 26.25V24.75H22.25V26.25C22.25 26.6719 22.5781 27 23 27C23.375 27 23.75 26.6719 23.75 26.25V24.6562C24.6406 24.375 25.2031 23.5312 25.25 22.5938V20.0156C25.25 18.6562 24.4062 17.3906 23.1406 16.8281ZM9.875 13.9219C10.0625 13.2656 10.6719 12.75 11.375 12.75H19.4844C20.1875 12.75 20.7969 13.2656 20.9375 13.9219L21.5469 16.5H9.3125L9.875 13.9219ZM23.75 22.5938C23.75 22.9688 23.4219 23.25 23.0469 23.25H7.90625C7.53125 23.25 7.25 22.9688 7.25 22.5938V20.0156C7.25 18.9375 8.14062 18 9.21875 18H21.7344C22.8125 18 23.75 18.9375 23.75 20.0156V22.5938ZM20.75 19.5C20.0938 19.5 19.625 20.0156 19.625 20.625C19.625 21.2812 20.0938 21.75 20.75 21.75C21.3594 21.75 21.875 21.2812 21.875 20.625C21.875 20.0156 21.3594 19.5 20.75 19.5ZM10.25 19.5C9.59375 19.5 9.125 20.0156 9.125 20.625C9.125 21.2812 9.59375 21.75 10.25 21.75C10.8594 21.75 11.375 21.2812 11.375 20.625C11.375 20.0156 10.8594 19.5 10.25 19.5ZM8.75 10.5C9.96875 10.5 11.0469 9.9375 11.7031 9.04688H19.25C19.9062 9.9375 20.9844 10.5 22.25 10.5C24.3125 10.5 26 8.85938 26 6.75C26 4.6875 24.3125 3 22.25 3C20.9844 3 19.9062 3.60938 19.25 4.54688H11.7031C11.0469 3.60938 9.96875 3 8.75 3C6.64062 3 5 4.6875 5 6.75C5 8.85938 6.64062 10.5 8.75 10.5ZM6.59375 6C6.92188 5.15625 7.76562 4.5 8.75 4.5C9.40625 4.5 10.0625 4.875 10.5312 5.4375C10.8125 5.8125 11.2344 6.04688 11.7031 6.04688H19.25C19.7188 6.04688 20.1406 5.8125 20.4219 5.4375C20.8906 4.875 21.5469 4.5 22.25 4.5C23.1875 4.5 24.0312 5.15625 24.3594 6H22.25V7.5H24.3594C24.0312 8.39062 23.1875 9 22.25 9C21.5469 9 20.8906 8.67188 20.4219 8.10938C20.1406 7.73438 19.7188 7.54688 19.25 7.54688H11.7031C11.2344 7.54688 10.8125 7.73438 10.5312 8.10938C10.0625 8.67188 9.40625 9 8.75 9C7.76562 9 6.92188 8.39062 6.59375 7.5H8.75V6H6.59375Z" fill="#5C8EE6"/>
</symbol>
<symbol viewBox="0 0 30 30" fill="none" xmlns="http://www.w3.org/2000/svg" id="shirt">
<path d="M29.8813 8.54898C29.6938 7.98648 29.3188 7.56461 28.8032 7.28336L20.5063 3.06461C20.1782 2.92398 19.8032 3.01773 19.5688 3.29898C18.8188 4.37711 16.9438 5.08023 14.9751 5.08023C13.0532 5.08023 11.1782 4.37711 10.4282 3.29898C10.1938 3.01773 9.81882 2.92398 9.4907 3.06461L1.19382 7.28336C0.678196 7.56461 0.303196 7.98648 0.115696 8.54898C-0.0718041 9.11148 -0.0249291 9.67398 0.209446 10.1896L2.50632 14.924C3.02195 15.9552 4.33445 16.3771 5.3657 15.9084L7.52195 14.9709V24.8146C7.52195 26.0334 8.45945 26.9709 9.6782 26.9709H20.3188C21.5376 26.9709 22.5219 26.0334 22.5219 24.8146L22.4751 14.9709L24.5844 15.8615C25.6626 16.3771 26.9751 15.9552 27.4907 14.8771L29.7876 10.1896C30.0219 9.67398 30.0688 9.11148 29.8813 8.54898ZM28.4282 9.53336L26.1782 14.2209C25.9907 14.549 25.5688 14.6896 25.2407 14.5021L22.0532 13.1427C21.8188 13.049 21.5376 13.0959 21.3501 13.2365C21.1157 13.3771 20.9751 13.6115 20.9751 13.8459L21.0219 24.8146C21.0219 25.1896 20.6938 25.4709 20.3188 25.4709H9.6782C9.3032 25.4709 9.02195 25.1896 9.02195 24.8146V13.8459C9.02195 13.6115 8.88132 13.3771 8.64695 13.2365C8.5532 13.1427 8.41257 13.0959 8.27195 13.0959C8.13132 13.0959 8.03757 13.1427 7.94382 13.1427L4.75632 14.5021C4.4282 14.6896 4.00632 14.549 3.8657 14.2209L1.56882 9.53336C1.47507 9.34586 1.47507 9.20523 1.52195 9.01773C1.56882 8.87711 1.70945 8.73648 1.89695 8.64273L9.63132 4.65836C10.8032 5.87711 12.8188 6.58023 15.0219 6.58023C17.2251 6.58023 19.1938 5.87711 20.3657 4.65836L28.1001 8.64273C28.2876 8.73648 28.4282 8.87711 28.4751 9.01773C28.5219 9.20523 28.5219 9.34586 28.4282 9.53336Z" fill="#5C8EE6"/>
</symbol>
<symbol viewBox="0 0 30 30" fill="none" xmlns="http://www.w3.org/2000/svg" id="boots">
<path d="M15.7969 15.75C14.1562 15.75 12.2344 16.4062 10.875 17.3906C9.75 18.1875 8.8125 18.9844 6 18.9844H3C1.3125 18.9844 0 20.4375 0 22.2188C0 23.9531 1.3125 25.5 3 25.5H6L8.67188 26.2031C10.1719 26.6719 11.7188 27 13.7344 27C18.8906 27 24 24.4219 24 20.5781C24 17.3906 20.0156 15.75 15.7969 15.75ZM5.25 24H3C2.20312 24 1.5 23.1562 1.5 22.2188C1.5 21.2344 2.15625 20.4844 3 20.4844H5.25V24ZM9.04688 24.75L6.75 24.1875V20.4375C9.32812 20.2969 10.5 19.5 11.5781 18.75C15.8438 15.7031 22.5 17.8594 22.5 20.5781C22.5 23.4844 16.7812 27.0469 9.04688 24.75ZM19.7344 3C17.6719 3 16.1719 3.375 14.6719 3.84375L12 4.5H9C7.3125 4.5 6 6.04688 6 7.82812C6 9.65625 7.3125 11.0625 9 11.0625H12C14.8125 11.0625 15.75 11.8594 16.875 12.6562C18.2344 13.5938 20.1562 14.25 21.7969 14.25C26.0156 14.25 30 12.6562 30 9.46875C30 5.625 24.9844 3 19.7344 3ZM11.25 9.5625H9C8.15625 9.5625 7.5 8.8125 7.5 7.82812C7.5 6.89062 8.20312 6 9 6H11.25V9.5625ZM21.7969 12.75C20.4844 12.75 18.8906 12.1875 17.7656 11.3906C16.6406 10.6406 15.4688 9.75 12.75 9.5625V5.85938L15.0938 5.25C16.5 4.875 17.8594 4.5 19.7344 4.5C22.1719 4.5 28.5 5.71875 28.5 9.46875C28.5 11.625 25.125 12.75 21.7969 12.75Z" fill="#5C8EE6"/>
</symbol>

<symbol viewBox="0 0 30 30" fill="none" xmlns="http://www.w3.org/2000/svg" id="bricks">
<path d="M24.5 4H6.5C5.65625 4 5 4.70312 5 5.5V8.5C5 9.34375 5.65625 10 6.5 10V24.25C6.5 24.625 6.73438 24.9531 7.10938 25C7.57812 25.0938 8 24.7188 8 24.25V22H18.5V24.25C18.5 24.6719 18.8281 25 19.2031 25C19.5781 25 20 24.6719 20 24.25V22H23V24.25C23 24.625 23.2344 24.9531 23.6094 25C24.0781 25.0938 24.5 24.7188 24.5 24.25V10C25.2969 10 26 9.34375 26 8.5V5.5C26 4.70312 25.2969 4 24.5 4ZM11 14.5H8V10H11V14.5ZM8 20.5V16H14V20.5H8ZM23 20.5H15.5V16H23V20.5ZM23 14.5H12.5V10H23V14.5ZM24.5 8.5H6.5V5.5H24.5V8.5Z" fill="#5C8EE6"/>
</symbol>
<symbol viewBox="0 0 30 30" fill="none" xmlns="http://www.w3.org/2000/svg" id="more">
<path d="M15 14C14.1562 14 13.5 14.7031 13.5 15.5C13.5 16.3438 14.1562 17 15 17C15.7969 17 16.5 16.3438 16.5 15.5C16.5 14.7031 15.7969 14 15 14ZM7.5 14C6.65625 14 6 14.7031 6 15.5C6 16.3438 6.65625 17 7.5 17C8.29688 17 9 16.3438 9 15.5C9 14.7031 8.29688 14 7.5 14ZM22.5 14C21.6562 14 21 14.7031 21 15.5C21 16.3438 21.6562 17 22.5 17C23.2969 17 24 16.3438 24 15.5C24 14.7031 23.2969 14 22.5 14Z" fill="#5C8EE6"/>
</symbol>
<symbol viewBox="0 0 14 14" fill="none" xmlns="http://www.w3.org/2000/svg" id="shield">
<path d="M11.9221 2.94626L7.41988 1.07035C7.27918 1.02345 7.13849 1 6.9978 1C6.83365 1 6.69296 1.02345 6.55227 1.07035L2.05007 2.94626C1.62799 3.13385 1.37005 3.53249 1.37005 3.97802C1.37005 8.64436 4.04323 11.8569 6.55227 12.9121C6.83365 13.0293 7.13849 13.0293 7.41988 12.9121C9.43649 12.0679 12.6255 9.18368 12.6255 3.97802C12.6255 3.53249 12.3442 3.13385 11.9221 2.94626ZM10.1616 5.72512L6.50537 9.14349C6.36467 9.30763 6.10673 9.30763 5.96604 9.14349L3.95613 7.37141C3.81544 7.23072 3.81544 6.99623 3.95613 6.85554L4.24087 6.5708C4.38156 6.43011 4.61605 6.43011 4.75675 6.5708L6.30254 7.91226L9.41607 4.97962C9.55677 4.83893 9.79126 4.83893 9.93195 4.97962L10.1616 5.20924C10.3023 5.34994 10.3023 5.58443 10.1616 5.72512Z" fill="#828A99"/>
</symbol>
<symbol viewBox="0 0 24 24" fill="none" xmlns="http://www.w3.org/2000/svg" id="vk">
<path d="M21.4439 16.7569C20.6455 15.32 18.5889 13.5935 17.7398 12.8422C17.5074 12.6365 17.4826 12.2806 17.694 12.0531C19.3144 10.3119 20.6104 8.31123 21.0565 7.1023C21.2533 6.56826 20.8459 6.004 20.2719 6.004H18.6044C18.0548 6.004 17.7331 6.20127 17.5799 6.51538C16.2332 9.27491 15.078 10.4692 14.2694 11.1672C13.8167 11.5581 13.1107 11.2343 13.1107 10.6393C13.1107 9.49306 13.1107 8.01133 13.1107 6.96057C13.1107 6.45096 12.6939 6.03865 12.1799 6.03865L9.13379 6.004C8.75036 6.004 8.53132 6.43808 8.76147 6.74242L9.26441 7.4644C9.45368 7.71454 9.55587 8.01888 9.55587 8.33122L9.55321 11.5826C9.55321 12.1482 8.86766 12.4245 8.46068 12.0282C7.08381 10.6873 5.88909 7.94913 5.45901 6.63979C5.33461 6.2608 4.97962 6.00489 4.57709 6.004L2.93452 6C2.31828 6 1.86777 6.58425 2.03527 7.1725C3.5361 12.4405 6.61552 17.4522 12.1035 17.9956C12.6442 18.0489 13.1107 17.6135 13.1107 17.0745V15.3658C13.1107 14.8757 13.495 14.4545 13.9891 14.4421C14.0064 14.4416 14.0237 14.4416 14.041 14.4416C15.4926 14.4416 17.1182 16.5543 17.6869 17.5424C17.8504 17.8267 18.1561 18 18.4867 18H20.6962C21.3408 18 21.7545 17.3162 21.4439 16.7569Z" fill="#5C8EE6"/>
</symbol>
<symbol viewBox="0 0 24 24" fill="none" xmlns="http://www.w3.org/2000/svg" id="inst">
<path d="M8.44444 4C5.99378 4 4 5.99378 4 8.44444V15.5556C4 18.0062 5.99378 20 8.44444 20H15.5556C18.0062 20 20 18.0062 20 15.5556V8.44444C20 5.99378 18.0062 4 15.5556 4H8.44444ZM8.44444 5.77778H15.5556C17.0258 5.77778 18.2222 6.97422 18.2222 8.44444V15.5556C18.2222 17.0258 17.0258 18.2222 15.5556 18.2222H8.44444C6.97422 18.2222 5.77778 17.0258 5.77778 15.5556V8.44444C5.77778 6.97422 6.97422 5.77778 8.44444 5.77778ZM16.4444 6.66667C16.2087 6.66667 15.9826 6.76032 15.8159 6.92702C15.6492 7.09372 15.5556 7.31981 15.5556 7.55556C15.5556 7.7913 15.6492 8.0174 15.8159 8.18409C15.9826 8.35079 16.2087 8.44444 16.4444 8.44444C16.6802 8.44444 16.9063 8.35079 17.073 8.18409C17.2397 8.0174 17.3333 7.7913 17.3333 7.55556C17.3333 7.31981 17.2397 7.09372 17.073 6.92702C16.9063 6.76032 16.6802 6.66667 16.4444 6.66667ZM12 7.55556C9.54933 7.55556 7.55556 9.54933 7.55556 12C7.55556 14.4507 9.54933 16.4444 12 16.4444C14.4507 16.4444 16.4444 14.4507 16.4444 12C16.4444 9.54933 14.4507 7.55556 12 7.55556ZM12 9.33333C13.4702 9.33333 14.6667 10.5298 14.6667 12C14.6667 13.4702 13.4702 14.6667 12 14.6667C10.5298 14.6667 9.33333 13.4702 9.33333 12C9.33333 10.5298 10.5298 9.33333 12 9.33333Z" fill="#5C8EE6"/>
</symbol>
<symbol viewBox="0 0 52 11" fill="none" xmlns="http://www.w3.org/2000/svg" id="ruso">
<g clip-path="url(#clip0_129_565)">
<path d="M13.4243 6.35301V0.251953H15.6153V6.27665C15.6153 7.69226 16.4376 8.66538 18.005 8.66538C19.5724 8.66538 20.3781 7.69129 20.3781 6.27665V0.251953H22.5847V6.33832C22.5847 8.86411 21.0927 10.5832 18.005 10.5832C14.9153 10.5832 13.4243 8.84845 13.4243 6.35301Z" fill="#828A99"/>
<path d="M27.791 8.96925L28.9619 7.3265C29.6775 8.07249 30.7877 8.69513 32.1877 8.69513C33.3752 8.69513 33.9528 8.14788 33.9528 7.56929C33.9528 5.77383 28.1102 7.00637 28.1102 3.18734C28.1102 1.49859 29.5708 0.0986328 31.9595 0.0986328C33.5729 0.0986328 34.9112 0.58519 35.9156 1.51425L34.7134 3.0963C33.893 2.33562 32.7966 1.98612 31.7618 1.98612C30.8337 1.98612 30.3168 2.39632 30.3168 3.00525C30.3168 4.61764 36.1437 3.53782 36.1437 7.3265C36.1437 9.18267 34.8202 10.5826 32.0819 10.5826C30.1347 10.5826 28.7348 9.92768 27.791 8.96925Z" fill="#828A99"/>
<path d="M41.2124 5.29241C41.2124 2.2086 43.467 0 46.5508 0C49.6493 0 51.9039 2.2086 51.9039 5.29241C51.9039 8.37525 49.6493 10.5838 46.5508 10.5838C43.467 10.5838 41.2124 8.37525 41.2124 5.29241ZM49.664 5.29241C49.664 3.37555 48.4373 1.9335 46.5508 1.9335C44.6643 1.9335 43.4523 3.37555 43.4523 5.29241C43.4523 7.19459 44.6643 8.65132 46.5508 8.65132C48.4373 8.65132 49.664 7.19459 49.664 5.29241Z" fill="#828A99"/>
<path d="M5.93463 6.5351C7.03012 6.27665 8.15693 5.31822 8.15693 3.52275C8.15693 1.63624 6.86369 0.251953 4.74809 0.251953H0V2.15315H2.16063H2.32118H4.42894C5.29633 2.15315 5.95029 2.67005 5.95029 3.52275C5.95029 4.37447 5.29535 4.89236 4.42894 4.89236H2.32118H2.16063H0.000978824V10.4001H2.16161V6.79453H3.74463L5.73687 10.4011H8.21763L5.93463 6.5351Z" fill="#828A99"/>
</g>
<defs>
<clipPath id="clip0_129_565">
<rect width="52" height="11" fill="white"/>
</clipPath>
</defs>
</symbol>
<symbol viewBox="0 0 24 24" fill="none" xmlns="http://www.w3.org/2000/svg" id="close">
<path d="M3.86726 3.15991L3.16016 3.86702L11.292 11.9988L3.1603 20.1305L3.8674 20.8376L11.9991 12.7059L20.1307 20.8376L20.8378 20.1305L12.7062 11.9988L20.838 3.86702L20.1309 3.15991L11.9991 11.2917L3.86726 3.15991Z" fill="#828A99"/>
</symbol>

</svg>
